<mxfile host="65bd71144e">
    <diagram id="JBI_FJsBgARIebrV1lQ3" name="Page-1">
        <mxGraphModel dx="1163" dy="1882" grid="1" gridSize="10" guides="1" tooltips="1" connect="1" arrows="1" fold="1" page="1" pageScale="1" pageWidth="827" pageHeight="1169" math="0" shadow="0">
            <root>
                <mxCell id="0"/>
                <mxCell id="1" parent="0"/>
                <mxCell id="55" value="" style="rounded=0;whiteSpace=wrap;html=1;fontColor=#66B2FF;fillColor=#FFFFFF;strokeColor=default;" parent="1" vertex="1">
                    <mxGeometry y="-720" width="1260" height="1330" as="geometry"/>
                </mxCell>
                <mxCell id="49" value="AWS Cloud" style="points=[[0,0],[0.25,0],[0.5,0],[0.75,0],[1,0],[1,0.25],[1,0.5],[1,0.75],[1,1],[0.75,1],[0.5,1],[0.25,1],[0,1],[0,0.75],[0,0.5],[0,0.25]];outlineConnect=0;gradientColor=none;html=1;whiteSpace=wrap;fontSize=12;fontStyle=0;shape=mxgraph.aws4.group;grIcon=mxgraph.aws4.group_aws_cloud_alt;strokeColor=#232F3E;fillColor=none;verticalAlign=top;align=left;spacingLeft=30;fontColor=#232F3E;dashed=0;" parent="1" vertex="1">
                    <mxGeometry x="170" y="-550" width="1020" height="910" as="geometry"/>
                </mxCell>
                <mxCell id="10" value="VPC 10.0.0.0/16" style="points=[[0,0],[0.25,0],[0.5,0],[0.75,0],[1,0],[1,0.25],[1,0.5],[1,0.75],[1,1],[0.75,1],[0.5,1],[0.25,1],[0,1],[0,0.75],[0,0.5],[0,0.25]];outlineConnect=0;gradientColor=none;html=1;whiteSpace=wrap;fontSize=12;fontStyle=0;shape=mxgraph.aws4.group;grIcon=mxgraph.aws4.group_vpc;strokeColor=#248814;fillColor=none;verticalAlign=top;align=left;spacingLeft=30;fontColor=#AAB7B8;dashed=0;" parent="1" vertex="1">
                    <mxGeometry x="280" y="-490" width="750" height="850" as="geometry"/>
                </mxCell>
                <mxCell id="127" value="Availability Zone" style="fillColor=none;strokeColor=#147EBA;dashed=1;verticalAlign=top;fontStyle=0;fontColor=#147EBA;" parent="1" vertex="1">
                    <mxGeometry x="760" y="-320" width="210.73" height="490" as="geometry"/>
                </mxCell>
                <mxCell id="119" value="Availability Zone" style="fillColor=none;strokeColor=#147EBA;dashed=1;verticalAlign=top;fontStyle=0;fontColor=#147EBA;" parent="1" vertex="1">
                    <mxGeometry x="308" y="-320" width="210.73" height="490" as="geometry"/>
                </mxCell>
                <mxCell id="84" value="Public subnet&lt;br&gt;10.0.1.0/24" style="points=[[0,0],[0.25,0],[0.5,0],[0.75,0],[1,0],[1,0.25],[1,0.5],[1,0.75],[1,1],[0.75,1],[0.5,1],[0.25,1],[0,1],[0,0.75],[0,0.5],[0,0.25]];outlineConnect=0;gradientColor=none;html=1;whiteSpace=wrap;fontSize=12;fontStyle=0;shape=mxgraph.aws4.group;grIcon=mxgraph.aws4.group_security_group;grStroke=0;strokeColor=#248814;fillColor=#E9F3E6;verticalAlign=top;align=left;spacingLeft=30;fontColor=#248814;dashed=0;" parent="1" vertex="1">
                    <mxGeometry x="780" y="-280" width="180" height="190" as="geometry"/>
                </mxCell>
                <mxCell id="48" value="Public subnet&lt;br&gt;10.0.2.0/24" style="points=[[0,0],[0.25,0],[0.5,0],[0.75,0],[1,0],[1,0.25],[1,0.5],[1,0.75],[1,1],[0.75,1],[0.5,1],[0.25,1],[0,1],[0,0.75],[0,0.5],[0,0.25]];outlineConnect=0;gradientColor=none;html=1;whiteSpace=wrap;fontSize=12;fontStyle=0;shape=mxgraph.aws4.group;grIcon=mxgraph.aws4.group_security_group;grStroke=0;strokeColor=#248814;fillColor=#E9F3E6;verticalAlign=top;align=left;spacingLeft=30;fontColor=#248814;dashed=0;" parent="1" vertex="1">
                    <mxGeometry x="323.37" y="-60" width="180" height="190" as="geometry"/>
                </mxCell>
                <mxCell id="9" value="&lt;font color=&quot;#66b2ff&quot;&gt;user&lt;/font&gt;" style="shape=actor;whiteSpace=wrap;html=1;labelPosition=center;verticalLabelPosition=bottom;align=center;verticalAlign=top;" parent="1" vertex="1">
                    <mxGeometry x="720" y="-680" width="50" height="50" as="geometry"/>
                </mxCell>
                <mxCell id="13" value="ECR" style="points=[[0,0,0],[0.25,0,0],[0.5,0,0],[0.75,0,0],[1,0,0],[0,1,0],[0.25,1,0],[0.5,1,0],[0.75,1,0],[1,1,0],[0,0.25,0],[0,0.5,0],[0,0.75,0],[1,0.25,0],[1,0.5,0],[1,0.75,0]];outlineConnect=0;fontColor=#66B2FF;gradientColor=#F78E04;gradientDirection=north;fillColor=#D05C17;strokeColor=#ffffff;dashed=0;verticalLabelPosition=middle;verticalAlign=middle;align=left;html=1;fontSize=12;fontStyle=0;aspect=fixed;shape=mxgraph.aws4.resourceIcon;resIcon=mxgraph.aws4.ecr;labelPosition=right;" parent="1" vertex="1">
                    <mxGeometry x="466.09000000000003" y="308.85999999999996" width="49.86" height="51.14" as="geometry"/>
                </mxCell>
                <mxCell id="35" value="git push" style="edgeStyle=none;html=1;exitX=0.9;exitY=0.5;exitDx=0;exitDy=0;exitPerimeter=0;entryX=0;entryY=0.5;entryDx=0;entryDy=0;fontColor=#66B2FF;strokeColor=#66B2FF;labelBackgroundColor=#FFFFFF;" parent="1" source="15" target="32" edge="1">
                    <mxGeometry relative="1" as="geometry"/>
                </mxCell>
                <mxCell id="15" value="&lt;font color=&quot;#66b2ff&quot;&gt;developer&lt;/font&gt;" style="shape=actor;whiteSpace=wrap;html=1;labelPosition=center;verticalLabelPosition=bottom;align=center;verticalAlign=top;" parent="1" vertex="1">
                    <mxGeometry x="180.36" y="530" width="49" height="50" as="geometry"/>
                </mxCell>
                <mxCell id="33" value="test &amp;amp;&amp;amp; build" style="edgeStyle=none;html=1;exitX=0;exitY=0;exitDx=0;exitDy=0;entryX=0.5;entryY=1;entryDx=0;entryDy=0;entryPerimeter=0;fontColor=#66B2FF;strokeColor=#66B2FF;labelBackgroundColor=#FFFFFF;" parent="1" source="30" target="13" edge="1">
                    <mxGeometry relative="1" as="geometry"/>
                </mxCell>
                <mxCell id="30" value="" style="shape=image;verticalLabelPosition=bottom;labelBackgroundColor=#ffffff;verticalAlign=top;aspect=fixed;imageAspect=0;image=data:image/png,iVBORw0KGgoAAAANSUhEUgAAAOEAAADgCAMAAADCMfHtAAAA7VBMVEX///9cTuUAAABAQLJaTOVmWefl4/vRzvdXSOT5+fn6+v04OLD8/PyRiO2QkM99fcmclO5gYGB/f38uLi7k5ORAQEDc3Ny6urqMjIwzMzOZmZmpqak4ODiSkpLx8fENDQ17e3shISFUROTGxsbq6uqenp729f5gUuZISEjR0dE1Na90dHRQUFAXFxe+vr5mZmZtYeixq/Lt7PwcHByEeuvGwvZlZcCknfDd2vnc3PHHx+fp5/yelu92a+lqXee4uOGJgOy5tPOfn9e+ufVVVbpubsOWltNHR7XLx/Z9c+p3d8fQ0OtQULiFhc2VjO7oezdkAAAJmUlEQVR4nO2cC3eaOhzAI9IWhO6OtxVFVGxBUFfduq1b123d7h73bt//49w8UEHBumovTU5+Z6dHBGN+5PFPQhwAHA6Hw+FwOBwOh8PhcDgcDofD4XA4HA6Hw9mV86oz8Oicvp5VnYVH5rT/4o7tcjyVROnlSdW5eExOpVpN6p++qTofjwcyrInS0SWzVRUbQsf+zV3VWXkkUkNUjow2x6UhVLx4z2LkWBmiqnrBYHPMGqJyvHnVqDpLByZvCCOH9JGxyLFuCItR/P2u6lwdkg1D5PjiE0PNscAQR8cTteqcHYpCQ+goMtMcSwxRdGRkXlVmiKpq7VXVuTsE5Ya1Wv85C41xm6H0HIDZPlW18fZg+Xw49xmeHD08clxfPTtkVh/IvYZwzvH9QSnPntVHVBjCXvUhSwDnn+ujukKJIVoC+MPI0bi9Uup1egz/eAng7U8FCdJk+EcDudmvEfajzBAeXew05zj//CX1o85wtyWA66tRvU6rIZ5XbV8gf/tVUeo0G8K3xJflkWP297esH52GKDr+Pi5M6fy2PqrX6TckC+Sb0bFxfaXU16HUEEeO9YHc21/KpiC9huhZTm6BfPb3qMDviRheiuWK5YbwXO31Ijo2br8U+j0RQ3Dysl/muM0QVtX0edX11+ICfDKGoHF3I5WU0zZD5PhjBtTPRQ3waRnCZvRaLHS8x7AmHh2Dxl/lgk/HEIDj51KBI0uGQP3+Y1ORKUM4JPl00V+TYcwQNceLfDkyZwjAm4+56MigIRS6yVRVJg1hc3yxrKpsGgLw7vcicrBqCKPjR0li2xA0XuGBHMOGsDleHvVFpg1hc3x/0WfbEMr9+K2ybQjUY8bLEHMi7mH4JJ6u3ce78iWAew1H366rzv5OvLpZn3PsZqjUP9Oy72h2eVG8zLHNUKn/9RQe4u8AfqJ2/Ltf5LjFcHRFRwWFnJA1/DcvC3qcUkPlyy0tFRQaSh/wZozzu6ONYiwxVJRnNO2mOqlJ/Q/f0a7a88v1ZY5CQ0X5SUkDTEERX0q38R2fXkj3GSpX15RtMsZjGlGq4c0Yam4JoMBwRE+EWJKO2hZPuNW7jOO6ofKNqgaYshyXitIP/Eht9n4ZHfOGivL1n6pz+xAyI+/F3qg3p+lALmc4+nJbdV4fRnZugXbV4kdq31/iYswYKv/S1wBT8rMnsX/zCb1LIsfSUBn9oitCZNnYqZA+4cbPq4ihMvpJZQNM2ZwBSxenZCD3UcKGsAFSFgHzFMzxxf7Ra9ToGq9ukOFnCiNElsJVDLH/Ae+NajQY+DF4yTqNKP5g5fcYZStRoiSV7I2ijfK1NlZ+PLxtNVG6YKEU71svpR9uSD/ckH64If1wQ/rhhvTDDemHG9LPG7HsKT4rhuD4tPQ3J4wYLrbxMWwIHdE2PqYN8Ta+gqrKkmHxz6PYMizaG8WaIZhdrm04Yc5wY28Ug4b4kZrItiE4v/uwdGTTMLs3ilVD1BxJdGTXEDTI3iiGDSF3L/oi24Zg9v6oz7Yhihw1xg3hYJXybRgcDofD4bCCGQAQeKtjG72WTRV4pumVfooivPEUyEa8PJbbU/h3INiOIAiaXF3GDoYH7VTL9wZOBNTIGXjh1Ha8oGMmVhTZqu0MZDkybdOOnKDqvD4Mz0iigaGjEnMmQlewE/jKHwhR6MOz6G3dFrpak94S9c6E8VjQQWC3/ZbgBGoY2po2EAbYUGuDVjfqTgP9zBzOzaoz+yA8QwvsM33StoTY1uaGncQgXhkmwO1Gggv0UHZ7lBr2YE/T9n3DNeLAdgU3mYJpAmtpYjiTaNqL4jE2NAY6pWUoJzqQtc5kblkd1+hZ5lQHehz1zEF7PNYja24MTcsBumCMdUr/d3IUCz0P2KbnySYMhh76pwYwHtroyIYFF8hAb0c2nR3NrugJE9F/CwGlwfBRgbWcjWFfMZ5rdeEgoWvElXdPquMWMNkzVVkTUnoHyeU+eD2hgHDPO99cpqQdJpt7AEdtBST7JRrMlynph8nmHjyK4QAncuY6rr5vfd+f4lqa7FdLhyiNuX2gLO6J3GoSsOlZeuDul2gLp/XUhrEWytX0MGk9SUMZG2rL2umZxQE7UDcO5MC0I3jx6gwxzA6D0DXF6YG1q8zF8Bfl4JAjhpyhOolDYz43wjjtKCax7/uwTGw9tIEDD3T43bafmMB2fc0yeuOeEU4dnLmOr4corXGsww9F6C27qbXhJWehPiBf4MAzeoDSg/cBHcBmoQ46MKWxoaH2a7pxYsx7YedxDO1w1edouK7h+DYJYvh3AGdSkMicQgkbJNkOqo18jFyf5cCk48xxuEpvYPrwrw3Q317UXHZ53YGzSvVwU7aMod3OZjFENaWDO1gcWCbEUMMiETlY0oMX5z4Nr/CmuTfa9sIwwUmkd6ybuWScT+DwhpqQY7gwJLhZKQe4+Ytb62UYkUaZIQHZMY/grN2kdQ5WT1eGEU6467tuEw9N2nLOsJXNkQsiQ/M7Q9ftkIoFp5HN2E/boe/HehAQ47be1NO6N8kZuvcYHmzYtzIcprcW4uC6Y2cMLcdb5SiEXYscpH0fGWwbuJllo8UEXxqjPlMmSesZQ5REml43GUaRn75/pju2g+/NnsOrIkP8JWfkzTCVTQ17LtJJc3Tm5jsBB2fTXjckH02DAi5FOGBKDeeZ9Jq4wZmkJjg4TOAeyjq4ISmLtG5opB6RbHZ9Ep5Iz6CvL9sMig3x1VZ6MTaD1Z4YNr2NK8xVBVqceCRDy8GEWcN2kP3ijWC8zTBMDTtZQ0POpvd/G2YpNAyXhl5E7kZzB8NWqWH7yRkuylB129lQxqDhMH8tPYZdY8nc2WJork0v6TFMgiWmvMUQhwghhGNnX9vBsLyn+f8N82dLDXElPcOvoy2G1ppMpYYk4hs7GnYWnyqNFmRYSlY01MWXVGtIsrRYxwgcc5shLkNLXb7cNCSjNjwJk8n4pgkqNiQjb8HSOx0fzZFa2wxJO5y6rk+6nE1DL51NhVqShpWoasP12VO8zdC+ty9dn1/htaCKDe38DM/a1peCOHdtkaGcv8QyqzJsLw1BkJ2VdzVvkaOsYTs1DBYlPm7iT60MV4/9h6tV53GMP4fT66VJkMlMgSE+0T6UoTrMrJPKg2Zi9Hq9duI7+NHvQIcnW+k9n6CD4XJJrBX2eoY2tEEE3+/gu0AuX43NTXdq4eRaEZlxDZrZ9NDBkJzw8HKtnf2iQxluKsvyrotAqrrDlerOyXE4HA6Hw+FwOBwOh8PhcDgcDofD4XA4nEfiP3a8DwbZmfMiAAAAAElFTkSuQmCC;" parent="1" vertex="1">
                    <mxGeometry x="490.73" y="420" width="59.27" height="60" as="geometry"/>
                </mxCell>
                <mxCell id="31" value="" style="shape=image;verticalLabelPosition=bottom;labelBackgroundColor=#ffffff;verticalAlign=top;aspect=fixed;imageAspect=0;image=data:image/png,iVBORw0KGgoAAAANSUhEUgAAAOEAAADhCAMAAAAJbSJIAAAAh1BMVEX///80NDMxMTAmJiUtLSwbGxkoKCfi4uLT09Pf3941NTMdHRs+Pj3m5uXc3NxWVlVycnEiIiDy8vKgoJ86Ojn4+PjMzMzr6+tNTUxbW1q4uLhQUE/Ozs6cnJxEREPAwMCsrKx5eXlqamkREQ+GhoaNjYyIiIipqagODgthYWF+fn2UlJMAAAC6leu6AAAL20lEQVR4nO2d6ZqquhKGtRKCNg4EmUQFZ1s89399hzDJEBCVXsZz8u4f+1ndEPOZqVJJVQ8GEolEIpFIJBKJRCKRSCQSiUQikUgkEolEIpFIJBKJRCJ5HmOqjm0vYjRWHePTtekZS/VO+spEikYjNAX7y90tMKxP16svgqOvUIIBhjkAmGjafGN/um49YOuRuoK2IkAUfJt9uoZv4Wx9gvnqcpFw/d6GNBY+bWi9Ihjtv1Rj0ElfrJHux5+u7fPMrkpHfbHGw+nbJtbFg/FXA/lf1VWNPXqiARMANp+udndGPnlWH5NI9W/pqR5+sodmENf5dN07sdCe7qEZGEafrn0HtvRVfRFgii9xi94QyOYb0a047/lJtCJxIvZYtPGbAqOxuBJ57+i8LzCaUfefltHC8sVloiJR3KV/8840WoCKOqGuHwsExuOn/E9L4WPNW/soYEIPQ9P1Tdq8609Bp0+L4bJpWwmBgr6xHStG9c5L0iqSiNhPHbO5ykDml2npaWt29luWTqx/SEUbx+b9BHI9zq7B2EDLK+LtFp1DY3sol6Z3doemZsTLf1r7Lpya2oMsW3wwQeNGi4jWiEbTIoB2rUbYyG2QiEWzbJr2TOiRh2ncJFERywK3rvx6drAx1Qm/9dHiH9S7OzN+E3aaL8Z8nwC4Qnlt+Ks9TNQuL3v8r0cRai+85DYD8rq9rXPnYSTSFmPMtWc6GyYNr+8F6qY2t58pNePSsrfbrVfvfdxODua09uDHUH8IrkGrTageCUERZLKotI7DnU81kcxve6fXOFZkXMxsuAFdVSp/5o1Egff6XM7FszY8DEq/HGm8gbj7UFVfY1PWAFCyVi1eNwXxrO8WRtWtB5il3/O6Kbgi+xUrWPuaVYe2xQd4q35Hg0EMxnUB4BYfWPMG4lec06QsOAveobh5cBSOQvxFCnecrQct2XS/HIVk/an6Po/OUYhKzg2eQk20fX4L/58KH/dS+kUKb5zlrrT/s3iuum+aS0f1qRKg+MCMa7Z9kUJrXrPKyhtc/or/TXfBgmojwk/Jl8brxuCL5W57gF5Z88vzzKDexpHC+Yfq+hrWstgP4VDe+6lck0Ykp7CzXdSouKGsUMuWDCCk8ssNdwd8+3cCHuGsNFTjUK1gcEUodm8M9cqmwXC5XoxgIAw2b64f0qonyRot9P0+9GqbIr7HFATyRI247lJy7Pi64fPeh6VA3kRrxfcId7S6TlyPuUjDsMFXNsTzTq2w5h89KkLtnRoumpAu3jJ+H40sGoE6aVRLfjcd0sdHZNae34REsBsnTVdNDo8OZ6x905uCmd1O030orX2+MK4N5/9lR5UIhI1XDsIWr+es6Yx7iARa7hM4O8BMotvU36ztsEmgYCfAMc232kA5cq0Te9kcNkS3/7j6HZi13Nsjyq7ajkbgKs1vYJHsmZxj2809jN3TepqOSGfs6X7rzT0q3ChkTPkrdwYQbTLfs4PFqzuk7delO1kKH2DL3WEURUJyOvzoDi0QUd0Xu1fCnTjQjnc4/j1Gw/WmJxG1jzLWD243dwLPRT4YvbzfT8EU6i5UjeOj2eYhwh/HnN6UeBByJSzxlkSouhmFJHw9Pg/w9tO178Tp1eAgIOJ30YTtM6H4d4j5PWdNrwRzA92LvA5WMXbPxpJiaIrKEBXvqWYEdBXM8dQB4/jbNd4SEP62BkxQda1LOwIabkTc0XdidMQPxiNg6m6+aYapoW7mLZGGQM2r99X6GNb6NCGophIwInh++Z4VsJ2Zd15pikYRYSBEtQNcN8HXt16Fqe1dNrfb7bS4eKP/NXESiUQikUgkEol4WGvb7ssr47m/5PSHZvxsc3rhoGh8IOSnn7ujNwrRNvr6ZxJnJkUv3CkYK0MY9qJQTeJQ6J/d0wzJS1HzTGE/bZjmG/m7G2LskhA8nyKvP4VpWOPfKVxoAFrXq853+lOYxqngax+FcTn7P/rzo7w/hQOfOZ3/9Mhq+kosco8K1RWidCicw7xHhYOBHQS9FGUEp/nkgCe7bSlo0Lbt2CU4jf6fTKmjxdW8z65OELo/v+CWQyzqClnx5oH4+rZpeR0t9j5VJtdb+R6Dba/Xkf3w9nronCaEsFRXgBEs75/BEn78MutkT4nCbnQHc4wwzvIdz3QTsb+IANFrQ/1uxVQVOme/UDxnTFkeKzd+gBB3UdBjxhlHft+1kLaT4uEDprvs1hlL8RQnIJkDS+tkHGk88JNUCNYNCo5uwDg3rioKtxNSKl6v9rrRFRVOsYCu7l9CcgnrzSQoVhjfcwWCCEk+iUxGPIVJdBpgGocNOtf8NZR8QWg55Si0jtr9ubT4cqBFoFVO6eCQRwD0oTCpN9b8kxcElz1FcWcZ1RSS2zKycECD0GPd2IkPSLGy2niBt1gp8b+wU1e4T4o3b3HxWlx86dLQlhMhnAeN9aEwvm9I99nXamxYljxQ1KrCIRtIKOtAFruhDijMDl7UI2tR7BtVhXHgJc3//IOxgbj4+4FNwL27Qje9KWR3RoFsCz8ZM1stifcpKWT98JzNoixNJEyKk4Y9iV5Dx4pCT6kWP02Kz8asml3LjXo/QJ73FMDuSWGcshOX7ykZrH20S13hPScQu7gPuDzzz1hd4xiDu0Ij2mQMK9egDJaMOI+1ya6sYjO0Z7PRLbsdgN2eFN4QJ7Jn+qNoB9aIZYWFa6EswUAtteNa0bRfvaSQFV9LWuZEX0WW1VtN+yjdp/O3cU6vIyXxGG8rZB/GicY17LXNalgeh36+TrGoXnSuvTaNlmerqJDFdHGs5iASQRNLLE2Kigrm/SL5Eax6UciylNHmILmSwkKeww1qzZ6TK2Shp7wYxT3O8hEmV8LL38KZxvmWD6yEtxWeSWskZ1nh3dRgNWy5yZwrPEXFr8ZOFSNqJjBZt5wluyNU+pKnc3cV/Rcvym8rjAZ9W5BcUWEhbZXjQiVHUoNClloJNKVGvHgyVUl8cPVLtoyYQR8KH1S1tOLfx92U/bjFQ5Ur5KUZyIhnkks80bR8yX0obPM0VezSjBm051fNFPJj1FM0toYkuSRaMtP1orDl0m6DwvEPDJWWTVumMI6P/gE+cRsmfpiWkOc+FLal9mtQyNaYtvvoeS+9RjPSUZ3xYWMv6aUtOTTfVqi3T4oNCq0ltIaa5wp3+EEG0CSTQTKv3tluWFKKDfvh2wqZPxI3j6gGhcyPCi2B6rnCqHiANk+PpfzEs05pqgl+46QU/2GT7dsKZ9GGATW3RpPCQGuNcs0VqvAoZDtN1QeFwlJbHDD7x/t2afQJnBiWk67rTHeTQmaN1cNcjaOu75kxdrdLo1EAP7XqbaLiU91e6vKFfFiPV4noZBi8r5C1Ri0OaUExpvsWhYML5SS6PmoYK7eSQrYHwdX8j3nxjDT/LtBT3JudBaQbfjTuR2GcxJiU67BghgZV2xQO4p1SeRLZocw6L+wP2eYIl5MlxX/oBGX9JsgiG4jm7/WVlnmM0sOYHhTGO7hiPtWxzj5T2Q5aFc7Ylp7M7/bkaMUWby3+QUGhxTwD2LyvueruXnzMMQ/egEJoJrlafSkcrBM33/UydQzDWYdxqlyULCHNCgceqw2GvcdemwZ63Lm0pOJFL8bIZLYpWS7i5+xwEjtNCpslg5dzAfvpDNyLry1gdRhiRFzXNTVc3Ou2KBxsY4cDpth1VzjxMpL0kZInaj2Jf4eQu1qlxaOwWBBHIvGzTtyLwsHMTcLmsz+Cg5VMTJvCgU2yeTDpW/fcUGV/6cyvFl+1osJyWDtoy3xe6EdhNDVCHnsN5HD32I6Hqc97her1Yts/lL4GGNH7afvsFxNSWOgvZrH4Xf1itH1VchcU1vyCpRxn2SZv+7yjnrLVffbnmBW8PBUqYN3CMM564YXHkOMKcBZXU2Gv/Vw3RS/+MQxvxdUyKn5Co/IVmDfcCxiFKxw9oFF/FxTfvITH4zE89xL67aiBF8zUJ4+0reks8Lzx9OFrrHhvNG0+YjHUkefZqqhh7BKJRCKRSCQSiUQikUgkEolEIpFIJBKJRCKRSCQSiUTyj/gvaEy34Dsc+9EAAAAASUVORK5CYII=;" parent="1" vertex="1">
                    <mxGeometry x="430.73" y="420" width="59" height="60" as="geometry"/>
                </mxCell>
                <mxCell id="34" style="edgeStyle=none;html=1;exitX=0.5;exitY=0;exitDx=0;exitDy=0;entryX=1;entryY=1;entryDx=0;entryDy=0;fontColor=#66B2FF;strokeColor=#66B2FF;" parent="1" source="32" target="31" edge="1">
                    <mxGeometry relative="1" as="geometry"/>
                </mxCell>
                <mxCell id="32" value="" style="shape=image;verticalLabelPosition=bottom;labelBackgroundColor=#ffffff;verticalAlign=top;aspect=fixed;imageAspect=0;image=data:image/png,iVBORw0KGgoAAAANSUhEUgAAAS4AAACnCAMAAACYVkHVAAAAmVBMVEX///8bHyMWExIAAADDwsIOCgk7OTnS0tHu7u4VERAYHCBLSUnr6+t1dHQQDAv19fWvrq6DgoEkISAIAAC5ubmIh4dQT04AAAsxLy8NExje3t4dGRkUGR0AAAUoJiVaWVgAChGen6DJyco8P0JnaWszNjmtrKza2tokJyuWmJlMTlGOj5B8fX9DRUheYGJTVVc5Oz9vbm1DQUEKO4C5AAAKc0lEQVR4nO1d2WKqMBAVg0UQRStWoVABrUtdetv//7gLZDEEUKBWaMh5Y4vJ6WQyW9JOR0BAQEBAQEBAQEBA4I7QZX9yPr3vQryvPtd7U6m7R42F7a8lAOae5ThaBMexPBeAj0PQr7trjcP2sAJzS5PScDwgrc26+9ckGON/wHMyqELQLHc+s+vuZUPQ30vgCleIMQ+shR4LsZfmWXMwDcs9t17CTK0gWTFh4Nhqra+fQXGyInhOi5X+2LJKkRVCA2uj7m7XA2NYUrSQgO1aqfL107wCWVJkiI3r7vvjsS0/ETE0cKi7949GYN00ta4AHOvu/2MRXDPii/A1rHsEj0RQScm3la+t9jPZivlqjf7q737OVsjXpu5xPAgf9JpYblbSb4N22F8zyt7SPA9cjd1Qr1oumFvUt86uDfa9DCgKdv2Oofgn96YNFnria1MPXXLqa+9c91h+H4ZDTShrDW8qQ3CVMG2+81EsgqJLAvyb90OPGq9L4gv2Og4Rao7lzQGC61mQW8/zybz7pHjVNN7jOQEtHRKg4n3BCXjAWp0nvhwo262iBOb++Pnuut78SCkpn6bb+3r8CB6KU0Ktg8Sz/UTW2fcNezyU6Rtykm++V0czMVhtV74FO9GCc7p/HxuEpIHqrMq3oCfokoB8+5M/i6Rw3YMu6/P+vWwMPpIGqSaVb2KbpItn7aUwQ2VUfSEwAipZ/C6OQ9YWBdvSbew9tg1eXSGDFS5p7pdu5J11MCu08TfAzqNQMvalG/nHSqjz8QtdbQLW7Ei9dflGUsEyzUrZtlzAYGNbznsVtSOzMury6WgrLjvOagl8VkgtPsP27JpW1YFhDNWKQtp4sFIBqlaHnNmGeFRexntSdWleVaFgtVdl3puMPqO6qpvjfWbN8MqbI80H6wHNqye+PpO2BJe63mSk6we+8TGpvKoENhoPn6lPmldX0H5yjdWsO3azKTgwY9Sq0zVmBfWO3WwKmBmkSdWzOKl5zaHhtf5FujjMnzHGpebccTJyaKeytvhPVP2cf7pSPlD1LRjMqsHlZDyydFVPeaWY51DVsyLhVQ8aMwklLg0JVuFUd136O8ZZ59FMZZezKhl/CNb75NIJSicZq+p6Ns5oVQj5Nx59lq7KGa8Vo7q4DOCw4UHJea/WUFpMeQwPpvNmbjVTItUOj1ZqRrq+Wm5jy25U4zS1kZpE1XYSfLLCxWlRSSotK2lu+cXRT5Hucrp9g3Wyo3lU1ttL5bBDI5XT/f/pkhLJOpXjS/ZSm2K4LSlJFyyFfO3KyIafsbGP24IluhyODNspXrRknzP45jJ6A0H2IFjAA2Rbi7sqZGb2D5m7t7n0gBDQJgQr2kqtDF0kYo6r7W9MSSNYu2m1FQtX8JCe1wIUlUASIUvY+dM8sJqZdra5qSubLylvixXXheIdDUrIHB41YksXZ9nxgLd7T+kx4/SuudkHe0Hh4nkbArElLDhMpkjeyghcXd/lzvkmFxJ80aDO8W9viDqyrmbiC441VwSyODq72ACg92Vbmbtf7St08bwsQpDtn7Dsub+78JVTk8smMi74SWr3j8AgughOJH2HzzvTcqLRbAqJmoqcOtc0iJPs/IM3Zg7wLM8DTk5qiK2IuExFro0IjCOO72EjQDdnx+M+vVMWIchyfSK6Je6nYowVUlfZqj2FdFgxyTbv6GPrtNiAc+gC3EYiWGyR+1csspdNF5j8ejcbA2yqO1aBYEQmXS6P1c65kFE0QgOfJolX5SR0suhyubdPk5DxucUWkD6+JofZ8XzKsQsy6AItYyvUXw4256ODXDzPsqycoHuKLg3MHtvXJkBfsTvQCtKlua1ZE2kY62RsJo8uxky1LM6jELnYJKLvhejSwJnbVMZN2B+UgBWhy/rBxiseML6cVn+bLgus2+Em5sM4OIiwvEAypssBn23VWjT6B+A6t+jSLHASZCFs/gHPyrOmjPCZ64j/tEFDma1zj9lVvtabtussAQEBAQGBNsIwuKx5/wUom+Hye7FYPL2sj774F4tXYewXAIBpbzQa9XrRcde9l6JZwf5mHINOemzhvc0tN8gYI1Tsdk3wQ366CahTkhfU/YN/xUiX8YHilEBO0K23G7+r4G//Uqm9sQRqNwVciuXH48kPW8kAvU/RNYP3ek83flnB3/4huownkCarq3ahRMlgFF3lb6prG12fWWx1e9/w6ROcpb3nvM9bRtc+wZYaAo4AJultPE/RJkR9AnEJ3rSLLp3SW5GSGsULIxih8pELXXBERDkT+6xddB3Bhaz1RrF1XbeDzfANSZPxPIJSh85+IANsJ139KRYusEz0GV8c4Ihw6LTldPlYuHILis5gOpoCXAnXcrpeprDD05fcV8Yvby/E7Go5Xai/atGT6NtNV4D6O80vOzUg0NUWD1DHd+9ElxEcvpbLr1mjs20b3N9co/3r+S3Ca5z3sTdL5FuO4F3jNl3+8yLC2xI9C+D1InpG6JInr5GLP438zAb728iMUPNPwhiAUYTov3dG3iNSdSFf8V2doouKlNF0TWADvVf0zETXkWWikIUGjEjDoLkHJyzh8EevuW8MoDhFdH2lvCWart7ygqcRTRf8CexFmZjeDkVXstXGVv1+I49wgK77OoV4dlF0Da/S1e1NCZCoVKSr29h9aQs4MCL/IIGIr+J0pVGVritWTb14GyXF/3V06TRUaInJiP3vLvTF1bvRpcK/D/kzNNOwwB4hqQ65SlektDFfqhqr6/596BqB83irKzPizzfzhK9ydBmhPiProB2rt85d6FJVVK6DXbLpku1pI0DoKjQZI+Rb9dC0gFBL0vWKbTa09KjTx4y/LLCqx9sEfkCXungieFYr0rWnHjYQOLSMIs0dWuOWpIu2dCcJM7UEXdgpa+jJL4gMtYuuAzPEjDb1i9OV4wSVomvbbLqwoZ5YueX66LKbTRdeihIutqArD3isiZVb0JUHIys8WCNd6eabBcRGwk2rka6AethE4Pgg4aPzW3Rd4l1X6EJ216jbaSb6vUviDM/HQnQRKyuLrgy7iwhMJl2YfJRpaagT1CGCEPUffB82440/w8ZYFl3EMCIhvFt0HfBzGFTuDzPo6qFiMkJl7haHumF0L34PzPfjUq9MunScxgXLjWlGJWC36BqT6T4x5c2QRGnoiIQKng5j2TySiERzT+jIjShk0oUjZOGEiZjd3qZLocQ3BAmYJcODPTreNXpt6MIYYZ/DVzZdM/rtInQl3Hb6205+8LmxwfoIh6ziwTy67NJ0HXI46Vx0V/LJqOEntJsgg7AeiMMULF2hMFIVTkXo6iySfE1hAxe61F7i569UKjYExqQHpnSXQ1UygJ3+BnFuh0r+HaiYekxXL8KUpusI74FFfKV/X7KIKgDLYBE9hnTFX+pHKs94rQ62MehvznQO6OmAd2/6g5cIAyq3rKzxa6/hrLHhCy9LSj2P0UdHdL1/Ji0fw4aP34PBIDKt9Oi9QfiXsCdd/MK5YLVG7diaGz/COLi5MAVj39/kHniWAduMW75CBXxDbqZvLSAgICAgICAgICAgICAgICAgICDAN/4Dod3FmWpVkGEAAAAASUVORK5CYII=;" parent="1" vertex="1">
                    <mxGeometry x="436.61" y="525" width="107.51" height="60" as="geometry"/>
                </mxCell>
                <mxCell id="39" value="" style="endArrow=classic;startArrow=classic;html=1;strokeColor=#66B2FF;fontColor=#66B2FF;labelBackgroundColor=#FFFFFF;edgeStyle=orthogonalEdgeStyle;" parent="1" target="65" edge="1">
                    <mxGeometry width="50" height="50" relative="1" as="geometry">
                        <mxPoint x="745" y="-600" as="sourcePoint"/>
                        <mxPoint x="240" y="301" as="targetPoint"/>
                        <Array as="points">
                            <mxPoint x="745" y="-570"/>
                            <mxPoint x="530" y="-570"/>
                        </Array>
                    </mxGeometry>
                </mxCell>
                <mxCell id="42" value="Route53" style="shape=image;verticalLabelPosition=bottom;labelBackgroundColor=#ffffff;verticalAlign=top;aspect=fixed;imageAspect=0;image=data:image/jpeg,/9j/4AAQSkZJRgABAQAAAQABAAD/2wCEAAoHCA8VERgSERUVGBEYGRkYHBwYGhgcHxwZGBkaGR4fHhwcIS4lHB4sIRgYJjgoKy8xNzU1GiU7QD0zPy40NTEBDAwMEA8QHhISHzYrISE0NDQxNjExNDU0NDQ0MTc0NDE0NTQ/NDQ0NDE0NTQxNDQ0NDQ0NDQ0NDQ0NDQ0NDQxNv/AABEIAOIA3wMBIgACEQEDEQH/xAAbAAACAwEBAQAAAAAAAAAAAAAAAQUGBwQCA//EAEQQAAIBAgIHBQUFBAkEAwAAAAECAAMRBAUGEiExQWFxByJRgZETMkJyoVJigpKxFCOy0RYXM1SiwcLS4RUkU/BDc7P/xAAZAQEBAQEBAQAAAAAAAAAAAAAAAQIDBAX/xAAnEQEAAgICAgIBBAMBAAAAAAAAAQIDESExElETQYEiM0JxMmGRUv/aAAwDAQACEQMRAD8Ag44oT6bZxxQgOEIQHCKOARxQgOEIQpwijgOEUcAhCEAhCEAjihAccUIU4QhMhwijgcscUJpk44oQHHFCA4QhAcIo4BHFCA4QhCnCKOA4RRwCEIQCEIQCOKEBxxQhThCEyOWOKE0yccUIDjihAc7ctyrE4gsMPTZ9Xa1ioAvu2sQL79m+fPLsDUr1Vo0hdnPkBxYngANs1/L8LhsDhQpZVRbFnaw1mYgax6mw5Cw4TlkyeHEdkyxurTdGKOpV1JBBFiCOBE8TWtJdF6OLHtEIWvbYw2qw4B7bx4EbRzGyZjmeV4jDvqV0KHgd6t8rDYf18bS0yRb+yJ25IRRzoCSmR5HiMWxWlqhVF2ZrhRfcNgNyduzlPeQaO4nFMNQWpX71Rh3R46v2m5DzImmgYTL8L9mmvQs7H+Jzb6cANnHJl1xXtJllecZVWw1X2dUC9rqy3KsPEEjynBNizDA4XH4YEMCjDWR13qd3/BU+HAjZl+c5JiMK+rVXuk91xtVuh4Hkdv6xjy+XE9rE7R0Io52U59cNh6lR1SmpZ22BRvP/ABznVlGTYnEtaipK3sWOxV6t/kLnlNMyLIsPgqZYkF9W71GsNg2kC/ur/wCnhOV8kV/tJnTLcwy+vQbUroyuRcA2NxyKkg+RnNNezvLKOOww1WBJGtTccCR/CdxH+YEyXE0Hpu1NwQ6nVYHgR/7v4xjyeUf7Inb5whCdVEcUIDjihCuaEIQyI4oQHPdNGZgqglmIAA2kkmwAHE3ni80nQTRn2ajFV1/esO4p+FSPePgxHoD4kgYyXikbkmUponkK4OiXqW9uwu7EiyqNuqDwA4nieQFqLpfpCcVV1UJGGQnVG7WO4sR6geA6mS+nukusThKDdxTaow+Ij4ByHHxOzgb1nIMmq4qsKSbFG12IuEXx5k7gOPQEjlSv87pHt3aPaV4jC2Q/vKH2WO1flbh03dN80DA6S5dik1CygtsNOsACeVm2N5Eyo5toBiEGthmFUcVayt5bdVvp5yo4nDVKbalVXRvB1Kn0O8RNKZOYnldRLXK+iGWubmgB8rOo9FYD6T1h9Fsspd4UE2bbuWcD85IEyKjiaiCyO6j7rMv6GKtWd/7R2b5mLfrHw268k01XNdMcFQXVpkVXGwLTI1R1YbAOlzymcZznGIxNTXrNu91RsVByHj4nefSc+By+vWbVoU2c7u6Ng6tuXzIl5yPQJR38YdY/+NCQB1YWJPIW6mIimPn7OIVTIc/xGEe9M6yH3kY91uY+y3Med5o2WaUYDELqMyqx2FKthfkCdjeW3kJXs90CYE1MEbj/AMbHaPlc7+jespWLwtWk2pWR0bwcEX6X3jmImKZOY7OJa1X0Sy1zrGgov9hmQeikD6QoaKZbT7woKbfbLOPRyRMjo4h09x3UfdYr+hhWru/9o7t8zFv1Mnw29mpavmOlmAoDVVldhsC0rG3Ikd1fW/KZ/n2keJxRs51aQNwinZ1Y/Gfp4ASNwWCrVW1aKO7fcBNup3Dzluy3QCsya2IqCmxGxUAYj5je3kL9ZYrjx8z2vEOXQrSP2D+wrN+4Y7CfgY8eSnj4Hb4yy6aaOe3T21Ff+4Qbh8ajh8w4enhbOs1y6rh6zUao7y7jwZTuYcj/ADHCXjQTSPWAwtdu+Bamx+JR8B+8Bu8R02y9dT50SfcM9hL1p3o3Yti6C7DtqqOH3wPD7Xr4mUWdqXi8bhYnYhCE2ojihA5o4oQhwhCBPaGUKD41FxFtWxKhtzOLaqnx4m3EgDjaaTpY+KXCOcL/AGg3kX1gm25UcW/5I2gCYwDNU0F0iOIQ0axviEFwTvdN2t8wNgeoPEzzZqzuLekllgmvaDYaiuBptSsSw1nPEvuYHoRYchzlI06yQYfEe0pi1GrdgBuDj3l5DaCOpHCdvZvmpSu2FY9yoCy8nUbfVQfyCayfrpuFnmHauntanXeniaA1VdhZD3lANrG+x+vdk/h9KMsrrqtUQA71rDV/i7p8iZVu0rLQlZMSo2VBqN86junqV2fglJma4q3rFo4TUS2L/o+UP3lp4Yj7uoB/hh/03J6XeZMKtuLez/VpjuqPCAAl+Cf/AFJprmM0xy2iNVH1yNy0luPJtifWU/OtNsVWBWj+5pnZ3TdyPm+H8O3nKrCbrhrBpcMl07xFMBMSvtUHxCwcDnwbzseZltw2lWWVl1WqKt961hq/Vu6fImZFHJbDWeejTYBlOUP3lp4Y34rqD+GByzKKfeanhltxbU/1THrCAAmfhn3JprmK0ty2iuqjh7blpLrDyIso9ZEYDTSviMXTpUqKikzWYEkvq2N2uNi2G21je1r7Znk0Ds1y4atTEsNpPs16CzMfM6o/CZm+OtKzPZqId/aJh6BwntHsKqsoQ8SWI1l5jVBP4ZmSMwIKkhgQQRe4IOwi3G8smnmamtijTU/u6N1HN/iPrZfw852dn2SipUOJqC60zZQeL77/AIQR5keE3T9GPcrHEL1k5rthk/alArFe+P5jcCRa43XvMl0go0FxVVMOQaQbu2NwNgLAHwDFh5S5aeaQsg/ZaLWdheow3qp3KPAkbT4C3jszwTOGsxu3srBwhCelRCEIHLHFCEOOKEBzsynHtQxCVxe6sCQOK7mHmpInHCJjfA2LTPBrXy9ytiUUVlPyDWNuq6w85kuBxRpVUqrvR1fZx1SCR5i485sOjx18uohuNBVPQLq/5TFF90dJ58PVq+khsGneHFTL3YbShSovkQCfys0yObDizrZQxO84Qnz9jeY7GD/GY/2VOOT+jmi9TGI1RKiqFbU7yk3NgeB5iTP9XNf+8J+Rv5zrbJWJ1Mm1Hjl3/q5r/wB4T8jfzlZz3Kmwtf2LsHOqrXAIHevwPSK3radRJtHQkhkeVtia4oqwUkMbkEjui+4Sz/1dV/7wn5G/nFr1rOpk2pMJdv6uq/8AeE/I38588RoBWRGc10IRWa2q23VBPjyk+Wntdwps2DJFXD5YjEbEomqw5lTUb6kzHWOzymx6S9zLaoHClq+Rsv6Gc8/Oo9yksgd2JLMbsSWJ8SdpM2LLqS4PALrDZTpl25tYu3qxNvKZHgEDVqanczoD0LATVNOnK5dVtx1F8jUW/wBJM3M1r7JZVicQ1R2qObszFm6k39J8oo56FOEUcqiEIQOOEISo9RzxPUBwAJ2AEk7ABxPhCWvs/wAmNbE+2YfuqJDdX+EeXveS+Mxa0Vjci/sBhMusd9Ghbqypb6n9ZioBtYb9wmkdpmahaaYVT3nIduSKe6PNhf8ADKnodlxr42mtu6h9o3yoQR6tqjzM44v00m0/aQ0nPwKOV1FPw0PZ+bKKY+pExyaZ2mY8Lh0oA96o+sR9xNv8RT0MzKXBHG/ZDUOzFLYRz41m+iUx/OVPH6VZgK1QJiGCCo4UaqbFDGw93wtLr2cpbAKftO59G1f9MpP9D8zYljQtck956fE3+1MV8fO3lr8n2+P9LMz/ALw35af+2RuOx1as/tKzl3sBcgDYNw2ADjOnMMhxtBdatQZVG9hqso6lSQvnI2d6xXuuldOCxtWi4qUWKuAQCLHYdh3giSf9K8y/vDflp/7ZCSZ0ayCpi6uqLrSWxdvAeC+LH6b+RWivdhYdFMRmuLqazYh1w6HvNq0+8d+ovd3+J4DqJJaa6UCkrYagQazCzneEVhu+Yg+QN/CdGkOOfB4dcPgqL62rYMlNmWmvFi1iGcm529Tzy1mJJLElrm5Nyb323vtvecaUi8+Uxx9JHJEbJsOY/v8AK3K7S+H1hzOprAesx6atoBjRUwQpna1IlDf7J7y+Vjb8MueOIn0SyylUKsrjepDDqpuP0mw6R0BiMBUFPvayB1tx1bOtutgPOZVnmXmhialE7lY6vNDtU+hHmDND7Ps1FXDexY9+j3eqG+qfLav4R4xm6i0fRLLxCTml+UHD4lgotSe7p4AE95fwk+hWQc7VmLRuFOEUc0pwijgccIQlQQhCB7pU2dlRAS7EKoHFmNgPMkTaMvw9HAYGzEatNS7sPiY7SR4knYB0EoPZzl4qYz2jC60VLfjbur9Nc9VEmO0/MyBTwin3v3jdASFHS4Y/hE82T9d4r/0nmdKPmePevWevU95je3BRuCjkAAPKaboFk/sML7WoLVatmN9mqgHdB8NhJPzW4SjaGZQMTi1Di9JO+3gQD3V8z9A0ufaJnXsqAwyH95WBvbhT3H83u9NaMs7mMdUn0oulGbftOKeoD+7HdT5VvY+ZJb8UiYQneIiI1CrJlGmOIw2HWhSSmQpY3fWJ7zFtwYeM6x2hY+/uYf8AI/8AvlQhMzipPOk01fRfS1cW5o1E1K1iRY3VgN9r7jt3bdnHfKlp3kiYeur0hq0qusdUblZbXA8AbggdeFpy6DIxzCjq/DrseS6jA38yB5y19qLr7CivxGoSOgUg/VlnHXhkiK9SdSzaWfRrSv8AY6LUxR9oWcvfX1bXVFt7p+z9ZWITvasWjUq0TDdo9Mtarh2VfFHDn0Kr+smc4ybC4/DirT1ddl1qdQCxPgG4leBB2jbuMyOax2eI4wC624u5XprW/UNPPkpFOa8JMaZS6MpKsLMCQQeBBsRLDoRm37Pigrm1OrZG8A1+6fIkjoxMi89ZTi65Xd7ap/G04DO8x5V1P2rSu0XJ9emMUg79MarW40yb3/CTfoxPCUfIc0fDYhay3Kjuso+JT7w67ARzAmkaGZuMVhdSrZqiDUcHbrKR3SfG4uDzBmc6Q5WcNiXo7dT3lJ4o3u9bbV6qZyxT3jskemm6TZauMwZ9nZmsKlJhxNrgA+DA28weEyGaX2cZkXw7UGO2kRq/I1yB5EMOlpUNNMAKOOcKLK9qi/jvrf4g8mKZraaSR6QcIQnpaOEUcI444oShwijgaX2V0QKNepxNRV8kQMP/ANDKrp1WLZjWvuXUQcgEU/qW9Za+yuqDh6ycRUDeTIAP4DKnpzRK5jWvuYo45gov+YI8p5q/uykdrj2YYULhXq27z1LX+6ii31ZvWUjSzGtVx1ZydiuUXktM6mzqQT+Iy79mGLVsM9K/ep1CbfdcAg+oYeUpemGWPQxlQMDqVGaojcCGbWI6qTY+R4iKfuTvsjtCxHdHCehWoU9EMrxFNXosVJAuaThhrW23DawHTZOf+rejf+3qavyrf1/4mc0nZW1kJVvFSQfUbZ2/9ZxtrftGIt/9tT/dOPx3jqyalqWDy/L8uply2qSLFnILNbbqgAbeiiZzpPnjYuvr2K01GqineF3kn7x49ANtrmHqVGdtZ2ZmPFiSfU7Z5mqY/GfKZ3JEJ/Q/DYSpiWTF6vs2ptq6zavf1ktZgR3ra31lvxHZ5hG206tVb8CVYeWwH6zMp0YfHV6YtTq1EHgjuo9FIktS0zus6NNFwnZ5hVINSpUcD4RZAettvoROjSPSehhaXsMOUNYLqqq21aYAsCbbBbgvThM2rZniXGq9es6ng1R2HoTacgmfimZ3edmjvHFCd1WPQPGNTx6KD3agZG9Cw87qPUye7UMMLUKo33ZDzBAYelm9ZC6BZa9XFrVsfZ0bsx4axUhVHPbfoOYk12nYtbUaI967VDyFtUet2/LPPb92NJ9ons5rFccV4PTYeYKsP0PrJHtQpAPQfiyup/CUI/iMjuzqkWx2twWm7HzKqP4vpJHtRqjXw68QtQnoSgH8Jkn96D7UWOKE9KnCEIVxxzzHKhxxQgWvs6zMUsZ7NjZKy6v4wbp/qXqwlg7SsmZ0XF0xcoNWpb7F7q3RSTfk1+EzVWIIIJBG0EbCCNxB4Ga9ofpGmMpezq6v7Qq2ZTazru1gOIPEcCfAiebLE1tF4/KT7ZnkOb1MLXWsm0e6ynYGU7xyOwEHgQOk1alWwGY4e2x14g7HRvLap37RsO3eJTdKtCalNmrYRS9HeUG1k+Ub2X6jnvFPwuJqU3D0mZHG5lJB6cxymprXJHlWeTtcc27PcSpLYZxUXgrEKw5X91uvd6Sq43LcTRP76lUS3FlIHk24+RlpyztDxCWXE01qD7S9xupFtUnoFlnwenmWv7zvTJ4Oh/VdYfWZ88le42cskBnqbIcHlOLvYYeqeJQrrDqykMJCZl2dUGucPUdD9lu+vQHYw6kmWM8dTwbZtCS+baN43D3NSmSg+NO8vUm11HzASInaJieYURzzeT2U6KY6vZlTUQ/FUuotyFtY+lucTaK8yIOBImm5f2e4VLHEO9VvAdxfodb/ABSY1cqwm/8AZ6TDx1NY+veM4znj+MbTbKMDlOKrW9jRqODxCkL+c2UestmUdn9QkNi3Cr9imbseRbcvlfqJO4vT3L09wvUP3EIHq9vpeVjM9PsU91oKtFfH339SNUeh6yeWS/UaOVyzDMsFl9AIoVbDuU195j4nja+9j9TsmU5nj6les1aoe8x4blA2BRyAnxd3d9Zizu53klmYnYOZMvGimhbXWvjFsBtWkd5PAv4D7vr4SxWuONzPJ0luz/J2o4c1nFqlaxsd4QX1ehNy3mPCUrTDMRXxrspuiWpqfELe582LeVpctONJBQQ4ei3/AHDCxI+BSN/JiN3hv8L5gJMVZmZvP2R7eoRRz0KI4oQOKOKE0PUc8xyBz6Yeu6Mr02KupurKbEGfOEDTdHdPqTgJjLU33a49xvm+wfpzG6TWa6MYDFj2hUB2FxUpEAm/E2ur9SDMZndlub4qgb4eqyDeVBup6q11J52nntg53SdJr0tGY9neKQk4d0qL4N3G6cVPW4ldxej+Ope/h6oHiq64/Mlx9ZZcB2j11sK9FX5oSh9DrAn0k/hO0HL29/2tM/eW4/wFpPLLXuNm5ZSDY+DA+YI/QyeyzS7MKFgKpdB8NXvf4veHraabbLcav/wVtn3Sy/6lPpK7mvZ3Ra7YWoyN9l7svQN7y9TrR81bcXg268n09wlWy1waL+LG6H8fw/iAHOdGcaH4LEr7SnanUIuHp2KtfiVGxuosT4zM82yXFYZrV6ZUXsHG1G6MNl+RseU+mT59i8Kf3D9071bvKeduB5ixj4v5Y5NemmZVozgMGntX1WdRc1apGzmL91Oo28zI7OO0Cgl0wymq32jdUHT4m9AOcoGa5zicS2tXctbco2KvyqNgPPfzn3ybR7F4k3op3Ptv3UHn8X4QY+KP8skmvb65lpRj699eqyqfhp91emzvEdSZDItzYC7HgN5P+c0zK+z7DLZsSzVW+yLov0OsfUdJOVMRluCW16FH7qhQx/Cu0x81Y4pBtluE0cx9T3MPUt4uNQer2vLFl3Z5XaxxFVUX7Kd4+psFP5pNYrtBwK7Ka1anMKFH+Mg/SQOO7Q8S2yjTSmPFiXby2ADzBjyy26jRyuWXZHgMEhqKFUgd6pUYXt8zbFHIWErekOnYsaeC2ncarDYPlB3nmdnIykY/McRXbWr1Gc8NY7B0UbF8hOWWuHndp3Jp7d2ZizEliSSSSSSd5JO8xRQndThCEBwijgcUIQmgRxQgeo55jkDhCEBwhCB6RiCGUkMNoINiDyI3SzZPpvjaNldvbJ4Oe9bk++/za0q8Jm1Yt3A2XJ9JMFjF9ncB2FmpVALkcbA7GHTzAkHpDoCrXqYIhW3mmT3T8pPunkdnSZwDxG8bfMS56Pad1aQ1MUGq0xuYWLjrcgMOZN+ZnCcdqTuk/hNa6Tmj+glGnapirVam/U+BeoPvnrs5cZI55pdg8Lemv7yquzUS1ltwZty9Np5Sl6RabYivdKGtSocjZ26ke6OQ8yb2lUERited3n8GvaxZtphjq9wH9kh+GncG3N/ePlYcpXufEwhO9axXiFEcUJQ44oQHHFCA44oQHCEIHFHFCaDhCEAjihA9RzzHIHHFCA4QhAIQhA9RzxPUBxxQkDhCEAjihAccUIDjihAccUIHDPU8RzQ9RxQgOEIQCOKED1HPMcgccUIDhFHAJ6nmED1HFCQOOKEBwhCARxQgOOKEBxxQgcMcITYIxHCQOEIQCEIQGIQhIHHCEAjhCAQhCAxHCEKBGIQkQRwhAIQhAI4QgEcIQP/Z;fontColor=#66B2FF;" parent="1" vertex="1">
                    <mxGeometry x="200" y="-350" width="38.48" height="39" as="geometry"/>
                </mxCell>
                <mxCell id="58" value="S3&lt;br&gt;for img" style="points=[[0,0,0],[0.25,0,0],[0.5,0,0],[0.75,0,0],[1,0,0],[0,1,0],[0.25,1,0],[0.5,1,0],[0.75,1,0],[1,1,0],[0,0.25,0],[0,0.5,0],[0,0.75,0],[1,0.25,0],[1,0.5,0],[1,0.75,0]];outlineConnect=0;fontColor=#66B2FF;gradientColor=#60A337;gradientDirection=north;fillColor=#277116;strokeColor=#ffffff;dashed=0;verticalLabelPosition=bottom;verticalAlign=top;align=center;html=1;fontSize=12;fontStyle=0;aspect=fixed;shape=mxgraph.aws4.resourceIcon;resIcon=mxgraph.aws4.s3;" parent="1" vertex="1">
                    <mxGeometry x="1060" y="120" width="45" height="45" as="geometry"/>
                </mxCell>
                <mxCell id="64" value="" style="shape=image;verticalLabelPosition=bottom;labelBackgroundColor=#ffffff;verticalAlign=top;aspect=fixed;imageAspect=0;image=data:image/png,iVBORw0KGgoAAAANSUhEUgAAAQMAAADCCAMAAAB6zFdcAAAA/1BMVEX///91dXX/zDL/zDD2hBBjY2P/pxNycnL/yy3/qRf/zzRtbW2Pj49gYGD/phDzgA6Dg4P5+flnZ2f/owDQ0NCvr6/b29vr6+vi4uJqamqcnJx6enrv7+/8xULBwcHHx8eIiIi4uLinp6fsdxD4nxWenp5WVlZqb3j1lxD/0Sn/+vL/uFH/7tn/6c//yhf+2nmBfHD/3a3/sCz/z5D/x3v/9Ob/v2T/3rX/rCH/1Jz+78n/48H/sj/+4Zv/xXf4iwD+z0f4rln/4Ib+5an+013qvj7Zs0nguEP/9ti7oFmJgW2ai2ewmV70xTfGp1P6wYD4tQj3x2OejmX3zHj3w00i0kP1AAAJQUlEQVR4nO2bC3fTRhaAR3ZkyR3J6Gk9sWw1NnFITNOQQAoLfSywhbKw3f7/37J3ZvTwS4aeY3sW5X7nQBRZHl19uvOSJoQgCIIgCIIgCIIgCIIgCIIgCIIgCIIgCIIgCIIgCIIgCNIKzq/OZYcgnR/dvuwQZHPj9t1r2UFI5tLt9917XhuumIOnsqOQy1Nw0HdvZIchlcc9cDC4lR2GVJgCSIQL2XFI5NzlDgaPZQcikQvhoO9eyo5EHs8KB72X1a5711FeFw767rNqz32rF7eDwkHvudhx4w7cK7kxHZvnvX6ZCOLKb93ewJUc1JEpqwIkwoD9fuH2ej33TnZYx+SmcgBXzqZOj5mD3loi/NTq0cMLt1IAV34OM6ge31qZST5ZLP4lK8AjcOfWCnruJ/Jy0OsVOiqeLDr6P+SFeHBeDWoFvdOzO5EG4KCeSYKCjv5EYoyH5uWgVtA7PX1dbA4G1UySKeh0f5YZ5IFxe8sKzh6cFgoG7itxAFfQ6SzkhnlI+IypVzk4OTnpCwVlIhQKOov2PmBgD9JqBa/BwVmhYOCyRwqlgs7iJ9mhHowrt1Iw4GkAiTAocC9qBR39N9mhHoxPZT9QpgFLhNLBL79WCtrcMTwelFkwOD07ERQOTs8e6p3awc+yQz0YzzfSoEwEUPBdraDTbW3HcO5upsHJCU+DVQUt7hgu3LpBLNPg5AFLhHUF3dZ2DM/cLWkAiXC6oaC7aGvHUE4PltMAEuH1poKu/qvsYA/ErVuNkpfS4MH3mwq6re0YfhysDI92KAAJsoM9ENvSoEFBd9HOR+437mYaNCloa8fwwt1Ig0YFbe0YRLewnAbNCtraMTx119Jgh4Ku/k/Z4R4EPmNaSoNdCrp6O2cMrlBw9jUKWtoxnLsradCkYD7vvHn79u07vY3vGNj7lHqU3KBg/vH3948EynQoO+S9AzOmerK0XcH8zQe49hItUjLZQe+Za7dOgwYFfzzSlBVoEsgOe6/culUabFfw8YdHyjqa06pU6A/KNGhQoGgbCgBnIjvwPcLT4EGjgk6yVQFIGMmOfG9cuEUaNLQF7zcrQikhlB37vnjhnvI0aFDw70YFipbIjn1f3Ll8eNQwLug0K4DeoS1NwiuXpUHT0Oj3pWEB5Q0DpXX7QGUHvydesjRoHCDXNz3KRwYFE5NR3UjSlnSQLA0ap0nvqjSgHhzrUy2FH1YpQTNkR78Xbs5Om2eKy1WBHZw6OfuR0So55Aa/Jy7Pzpony/MP2hcctKJ7vNqhYLk52FoXxN5vnk+vdz04WxoibmsTFdqKseIvOx+c1VerUUd1WLdI1ajuHdvh4GTXg7N5ebGU5l6Yhlkc0dgejsZRmzpH+/O8WUF3/kNxqX51fMwnzWFRH2grHind/GfxXZOC7vxPfqnadOkLCZ8lpKJriFryKOXyYWWhu+5AzJhWan2s8R/CgSYn5APwTF9sVdDV3+x2sJIg3zp3C32bAn3+nt9uy6hJFP6DV5KoFc1Byfl/F/qmAl1/KwbLWk3xC99ryQ57z9z8tdhUoJc9w1aiVowSV4DGcV2Brr/b8RypHbPGNa70xZoCfXnquO7Alh3vYbgumgW9Yv5ng4S2jA02EY2jvsTiA91iQKOtmDY3cPHXYtnAw0sycTZeMdAklR3nYXnxsbSw0PmfP4dJtGJBc/wvlfHtc/WZWVgsqj909SynmDFrGo3ylieBwL5++Pnj9fKSk2AUJ9SJlHHevlEBgiAIgiAIgiAIgiDIfWDkczLib64anfyNZSIjf+sDsiD/4iP0LScusadHeehkUPb6j05t09x455F8/Zsg29lYjJ+yp+dDc8d7VTuEU6am2fiZZx5lTbNRniXbVG59vYMRNZT1XTPIjKG6w0Ewy7afmO2dsQSaHOUthLHD9N9wkBjh+tWOVPsLDlK1eT2Spx7v4XPlACp/6qfDGK57GFsGuzlWTHKxRcKpZfDWwTOsmN+czLCm1V0KVY9QtqLC9vk1+x6ZxNSH8tTQG4/56wTbhw3QEvokG4+h5mQ+jSeeaHXYKbmQkSh2MqW5HxBeGpwpZkFkoyqcPTsoFwFYYxKoUzOJyci08rGZszygVm6xLc/UckMdE5Krhm+ZEIdhGnlilgHljk18+Edsk5tSfcJeJ9BwGBk0Nxz4pq040ymlKfEcQ8vHTkxithjBJwl8ODETKB/0w3+82EThKzjNCTvTWAQRJ8k4V9T9S4g1C0hslvhBRKESBiq7bSNozKyItXM+nNVjtcKDDZWttvVDSHR2h+KoaEejKcsFuJG2yh2wF0miLkQJLyIkBlujaitj4lGmPYdcF3UBThyq0+KUOfu6QdnJAtbSTqCYrAgi5uEo+1+5EStTIBYOeNvuR2EQhkGUE0vUE75QwBtlKfWJkoj6bVkpHOM54qZ4KqsVkEmrDlibyNfiBapnqz4r1Vdtz2FFsIaicpCLxdtMaJqNPNYWVA5YmrBLN0jM/94hd/buoGoPmAOeZ7FmMiB/oV5wTQkJqZkkJiRuapmqBZFTfpCqig7RoGMgiYJNBzxfAjULacRLNUMhjLUglYPxuAwnNyOLRlBQ5UAV7yanGosD8I/iQCE2p+wXoMnQ+HviiIUTZAZcOc3LgwgLdTyNAciTRgcsFcQXtjiogvBEPVSXHIi17uyQIzpgEbBwYBev7rbj2/x+B3BlGftsnBAxGkhFx1B8A6o8O5hdYN0elA6Iw5NqmG5zMBEFTGzerkK6LzkwNKE5P6YDaNGHxI5nIbE0KyCh5aSEwsZQg7qgWikJNNaKGbCR8JCLtafQecEFW3RIAr4611MnwZKDiQkdI/QJSw6IY6Q822xNCUlqQD0BeSAC6kII7YfNHITqOGBv79MDOiiHd4lFQj5uI2liqiZry5Q4hyrPVowMHVU1M2gmoWFwTAWS3IvgIIXfvuGsGCbbJutb2JGUJbChzrzhjDtgBfsqfAK1y5txBzOPpQrsYI1ewE8Je2I4RhmxMWKsQrEzvziTForugrUYe3eQpksbadHVDTOPt9E2CYuRrO1BLeAfe1kx8qs27HS5MDgyLQoKhnaxxf9PvSysD+e77GFQRFCcUpwwFd8uyynOJL5o34vFCwiCIAiCIAiCIAiCIAiCIAiCIAiCIAiCIAiCIAiCIAiCIMj/P/8Dv2TiQX+1PLEAAAAASUVORK5CYII=;" parent="1" vertex="1">
                    <mxGeometry x="260" y="-680" width="99" height="74.15" as="geometry"/>
                </mxCell>
                <mxCell id="65" value="internet&lt;br&gt;gateway" style="sketch=0;outlineConnect=0;fontColor=#66B2FF;gradientColor=none;fillColor=#4D27AA;strokeColor=none;dashed=0;verticalLabelPosition=bottom;verticalAlign=top;align=center;html=1;fontSize=12;fontStyle=0;aspect=fixed;pointerEvents=1;shape=mxgraph.aws4.internet_gateway;labelPosition=center;" parent="1" vertex="1">
                    <mxGeometry x="510" y="-510" width="40" height="40" as="geometry"/>
                </mxCell>
                <mxCell id="67" value="ACM" style="sketch=0;points=[[0,0,0],[0.25,0,0],[0.5,0,0],[0.75,0,0],[1,0,0],[0,1,0],[0.25,1,0],[0.5,1,0],[0.75,1,0],[1,1,0],[0,0.25,0],[0,0.5,0],[0,0.75,0],[1,0.25,0],[1,0.5,0],[1,0.75,0]];outlineConnect=0;fontColor=#66B2FF;gradientColor=#F54749;gradientDirection=north;fillColor=#C7131F;strokeColor=#ffffff;dashed=0;verticalLabelPosition=bottom;verticalAlign=top;align=center;html=1;fontSize=12;fontStyle=0;aspect=fixed;shape=mxgraph.aws4.resourceIcon;resIcon=mxgraph.aws4.certificate_manager_3;" parent="1" vertex="1">
                    <mxGeometry x="200.00000000000003" y="-450" width="39" height="39" as="geometry"/>
                </mxCell>
                <mxCell id="71" value="" style="group" parent="1" vertex="1" connectable="0">
                    <mxGeometry x="554.5" y="170" width="180" height="130" as="geometry"/>
                </mxCell>
                <mxCell id="47" value="Private subnet" style="points=[[0,0],[0.25,0],[0.5,0],[0.75,0],[1,0],[1,0.25],[1,0.5],[1,0.75],[1,1],[0.75,1],[0.5,1],[0.25,1],[0,1],[0,0.75],[0,0.5],[0,0.25]];outlineConnect=0;gradientColor=none;html=1;whiteSpace=wrap;fontSize=12;fontStyle=0;shape=mxgraph.aws4.group;grIcon=mxgraph.aws4.group_security_group;grStroke=0;strokeColor=#147EBA;fillColor=#E6F2F8;verticalAlign=top;align=left;spacingLeft=30;fontColor=#147EBA;dashed=0;" parent="71" vertex="1">
                    <mxGeometry width="180" height="130" as="geometry"/>
                </mxCell>
                <mxCell id="56" value="RDS&lt;br&gt;(Postgres)" style="points=[[0,0,0],[0.25,0,0],[0.5,0,0],[0.75,0,0],[1,0,0],[0,1,0],[0.25,1,0],[0.5,1,0],[0.75,1,0],[1,1,0],[0,0.25,0],[0,0.5,0],[0,0.75,0],[1,0.25,0],[1,0.5,0],[1,0.75,0]];outlineConnect=0;fontColor=#66B2FF;gradientColor=#4D72F3;gradientDirection=north;fillColor=#3334B9;strokeColor=#ffffff;dashed=0;verticalLabelPosition=middle;verticalAlign=middle;align=left;html=1;fontSize=12;fontStyle=0;aspect=fixed;shape=mxgraph.aws4.resourceIcon;resIcon=mxgraph.aws4.rds;labelPosition=right;" parent="71" vertex="1">
                    <mxGeometry x="40" y="46.42857142857142" width="40" height="40" as="geometry"/>
                </mxCell>
                <mxCell id="73" value="Public subnet&lt;br&gt;10.0.3.0/24" style="points=[[0,0],[0.25,0],[0.5,0],[0.75,0],[1,0],[1,0.25],[1,0.5],[1,0.75],[1,1],[0.75,1],[0.5,1],[0.25,1],[0,1],[0,0.75],[0,0.5],[0,0.25]];outlineConnect=0;gradientColor=none;html=1;whiteSpace=wrap;fontSize=12;fontStyle=0;shape=mxgraph.aws4.group;grIcon=mxgraph.aws4.group_security_group;grStroke=0;strokeColor=#248814;fillColor=#E9F3E6;verticalAlign=top;align=left;spacingLeft=30;fontColor=#248814;dashed=0;" parent="1" vertex="1">
                    <mxGeometry x="775.37" y="-60" width="180" height="190" as="geometry"/>
                </mxCell>
                <mxCell id="76" value="" style="group" parent="1" vertex="1" connectable="0">
                    <mxGeometry x="550" y="195.85" width="120.00000000000011" height="120" as="geometry"/>
                </mxCell>
                <mxCell id="85" value="" style="group" parent="1" vertex="1" connectable="0">
                    <mxGeometry x="795" y="-235.50000000000006" width="160" height="150.50000000000006" as="geometry"/>
                </mxCell>
                <mxCell id="86" value="" style="group" parent="85" vertex="1" connectable="0">
                    <mxGeometry width="160" height="150.50000000000006" as="geometry"/>
                </mxCell>
                <mxCell id="112" value="" style="shape=image;verticalLabelPosition=bottom;labelBackgroundColor=#ffffff;verticalAlign=top;aspect=fixed;imageAspect=0;image=data:image/png,iVBORw0KGgoAAAANSUhEUgAAAOMAAADeCAMAAAD4tEcNAAABDlBMVEX///8DKioAxY4Qh3UAGBiXpKQAIiIAw4lcaGgAKCgAISFc0agAExMAHx8AhHIAHBy7v78ADg5fopZxf3+X5MvEzMyBiooUxZCbycHp7e0qRUV6hIQAFxcAgGwAAAA+Vla0u7va39/09vbw/Png9/D1/fvE7+HM09PY9eyOm5uptLS169oty5q62dTK4t7k8e9Fm4xKnpBu2rhH0KSN4cbC39qq6dUkj352s6nN8ucQNDRBWVkZOjpQZGSNwLcwS0uu0swBs4ICgmKL28cAa1UBoXcAGB8LYlcCUUIDQzkOd2gCeFsDNjECXkqZxr+Du7FrkYwITEUDER4AMCsAWU5cxqFctJVclINce3RfdHRHgUXSAAASjUlEQVR4nO1d+UPbRha2jJEYnzgcrgkGH5jTCcEQiAkEur1bmmy73e3y//8jqxlJtt6befZoNJYhy/dbiezO5zm+eadyuflhtH9ysr83x//BotFbH+Q9z8s3SieLHsq8sD/w8gE8r/R1zuVlxFCwzI8WPZ45AFDkLL++9bqPKPrYX/SYLGNvIFHMD3qLHpVdDOVpzHvDRY/KKg4VFH2SX9W5c66imPfOFz0uizhRTuNXdbb2FAfO13bsrBPT6E/k+qLHZgl7DYqij6/kTqfSjfFEfh36gXSjAWfVO1z0+GygBDldokO2tOjxWQC6qPqSCE9Z7/lfW/syoxFi3V/0GNMC6oYnVuY5/Ntz148eOmHEDfUQ/O3ZXwQu4JRdBH+FavLM9QPNWCNUfGRNes/6IlCCE3YZ/V21S58pkG5MNh66pT9nQxKajXElPEmiH6dv7u/fP1GFQSsSWMTUKpbQv39XFTh7M/cBJwc+WcCCHFHLGOGtz3BJoNo6O81g1MlwMfVgGSpVBeN+KWQoWF49tancAxOVb6CZwlalUj/uW0txVKtPjCQ6cKSJ0tCPt9UlhOr7DEauDVI3IvTRjyDrR/+dzHGpm8no9YAYKA7OyynHrsCXFqbok/yQwdg1caJxk0H2B3ZEnkqzyNF6m8HotYDtDaVHY4Z+vFJyrJ5lMX4dXGhZFsNphuR7xUoVE3k//+Hr4FBHGCT9aMQf654pp9GfyHdP41qnJ/BTp/uemEaf5JcMGMzETN2IgO2PybbtXxHTyEk+hTvdue6FGx+/E/34QFN8EvqBBz5t/xD6cQpZXV3BY2fh+qFwN9IgHJFQN1pvPoPduXj9mG5vYJRU+vEWUernrhDpDHhMATYoZgQ0sHki9ANeVPnSfANZL1g/dHUjgkI/oG5UX/HHoFy2Ps+dxxRgB/FMv6KsHz20MIVUYDtrkfqhrxsRJEMSHjCtUCmgmixSPxI53EKgn+U7OGFX4VcgOWktbCKxbmg5TtG16Hu4Ur+JHvtGsUsXgWnuRhrD+Id++PEn9QnaRxeBBekHNhs1AxkgnP6z+1BVM7l/EvphGpCK6cc/fnTcP4gVefUE9GMEZhHag1MxcTd/+wtzHOdX9cmC9ONqEceOeYB47L/6reZTZL8QCvFq4fqB0xsS7JfoPP72gU+jU4wmElmei9cPpBuJEv7C3+f3CqfosIdgoj7hxz4tWD/SBU5FGs8PrhPA/Ul9ciL3QCtjtzntt9CC0I9fIo7soaX2wN1LVleW0HM30vB154c/nQi+fqhXIjK77lOPOwGQvZE8odG3O4MDJ8Svao/Ge3i0XmU5kUp7PhHWffmfgD0QyoDcIBnqh7a7kUYHTKNT2FA/hvQjQ0NyRnxGB5uFOEXHvSOeW5R+zIyzzUbHBdPoOPW2+sHeYhyRKXVDYLcIKTrspql+EutHqqFrI61u+FitOxjbR8Szi9APrfyFGbhzJY7suqN+FunHuyzi56WE7kYFjuVpdJzaI/F09o7IfTiLJrrRvGYKjuzp6Ac6cDTcjRKQbszUD5gOMX9DMkmYikDHUU3jFP04vZKiBfOEkbsR4bGmpuiwLeI8ydYRCXXDqF5jo0xMo+OUNfVjro5IpBueSQL8FtANBv+D0o8MHZGomspE/o/LgBU8YmtrxKeQ/2qO+oHdjQbT2L2Lk2LljS3w38UD9ceyc0RaqEfZBNNY20T3geJH4nNZ6Yd13WCsm+t+BPuT1g8wkXPTjzTuxhArlTjF2nIOn7PsjtAPVbjZPtbT2xsHwGx0dwWfR2BnlZfVH0X5rfNxRGplN87ATXxdsnJb/LGzAyaSMiTfZGBIWqibaoPzpRIZGq/B/bVA6ccZEY61B6QbeRPduAETVosEvwn/zrT0o3pl35DEVbgGX7GMdUP9D8Vb4vMoEcJ6RqQFdyM0G1lxsu+6u3CfUoYk1A/rGZEW6orXgL0Bzs+Nnfg/sRviGz7PVT8s1PcdMKAbUAdXoH4cq78C64fVi4AN3fgYp8HKq+Afn4B+WHc3Fm/RqQgXMumIPJubIYnDVEZmI5ioHWwoNsFKZi5hSKI8UIv6gcpwTOwNpBuyzsMHKnr60ZLi66aw4W6EMl+Wf/8u8CuzyqriW3KSflhzRKIDJ32YKib/E7TBRNKBrLlktOAwlYnZCHfbtXIb3QL9qFP6MQ9HZA+u1PS6QcnfAdSP6wz1w4ZuFOKjJ++jr4F+FDT1495gQAgozd3I3XindR3NdSpgIilH5FvrjkgLZiN0S1Uo+zCXO4InExXIemXZkET2RsPgR0P2xg6xz3KygZlRICt5VrwEqBvkNuNol+G9nXjsk1VHpI30hmsN3QjRvdV0REKRTKUffST/Jmbjbdzd6NQIt1uIgzr4QahAlk1HpAXd2ChqLb8Ij+AXIQNZ9uwPrBsm6Q16x8gYTTiRVCIE1g+DgYVIWk2lAOFupLEJLgKagSzzRAgbYSoY36gRbsX4J/QckafIEWmqHxbCVEfAmCio7A2MZTDzmokQLUNHJKqmGqS3N5iO2Q71g2231Y8h+8PQEWlBN6CXpjBdNyKgQBbliLShHzbcjcUp7kYaSD+oX+YstSGJzUYT3diFtxbCfSGhAz3KDnHBxYkQycdnw96AYYwV7Q9C/Si8Jh77kNKQxGEqgwMHqcA2IeeqT0LFcSn9QI7IpMcOClPNxd045aPAVCFvDl9SOSIt6AYyG+u02SgDOSILxE7upXJEWnA3rul5Z9RYnb9+rKdPi4NhKraV8ON6+pEikGXd3chqhLeURKesFch6b+yIzM7dSAM6Irepmy7uZ6L79ajJuGfi3EMHzmx7A6MLDUlGKA/WD92xWsiKJ9MbEnwF1A/qBmEWyLKhG1D+C0l0IwLSjyLhQUD6oXkRsJ4Vn1A3IrS3wY2eOpk/GzgiLbgbkW7UzKK9Xa1IkIl+YN0wcjcC3Si0Db6CA+kHZX8kD2TZ0A2Q3Uim3c6GZiJEUv1IXYWbw7pR1DUbZXTLcwlkWXA3Hid1N9LY1AtkfUgUyELpDSZhqm4RTqOJbowBNYjSj9NEGfUWdAMGEclNpIfjmlYk4ZsEiRA20htcuIfSZQl19Y7oHmo0PG0iLegGrKba1nM30kCOSId4TF8/kjX9U48JLq7d1MleKCNUM5BFXgT2kL2RPr1he1aYajaacCJd4ghD9gdZ0WtDN2DWWxrdiHCkF8jSc0TadzeW9d2NU76TaTkie1qBLPthKsr5mwzHBa2rIUykUwey0HtiTeyNJvT9Fixll8KM+oKe/bGkOnash6lmpDfoA6YUsGvisXu4WhWOSAtVuLCainSKJoelQFYfyX/qJhxkcNQAnbrW3WlWIoSN9AZwNpBOJhMg+8NMP5BuGLkb4YFDVd0aAemHbiIEnG8YpspbCFPZ0Y3xl4OJJF3Sn6Y4InF2o8EoUPHClOxGI2zBjHrijthfgohdBHBanFGYCpqNtnQjArI/NPUjZkjaD1NRYzAH1A8yReSMyIhE7sa8SRMOaMvW2kY8pqFT0HJEokLQsSFpwd3YrkCz0ZDINKQKZGF7w8TdmDgtLjmQI7JIBbKQfgR/Td/0D5mNidIb9AENSdI2/aTIiMS94k3kH1r/lK83LaB+UBeBviKQdZE+K74DvMYp3Y00oCOSXC2wo5C40QGXqlGYCrpUGTMmMQvw8Cb1CRiS/GhF+dRGb9uOVxOzStuYwyyAVFH6Rgz1w1+s0Ps/WDfAd/EaVXZ9tDw3gOY7lX9+QwDsSP8egK6qngG+je9GXzkKcwNomuT+VW0pAX0evkSi6L8JIMfMwP5Y0sGz5uj+pcWx+gZH44w4wp64mXH8aTbBYD/iNpwm+F1uw5kB2K+zCfq46mHXsRFA/+bMKD7oTSO3IS1syAbuipsFXL1pDHzJw2c5ka7mqRr4dPYG6Un+XJk9KrsUH8jXKQKKkbfjsJGaZOPnbGcSvKJmGsWxFdWzsFx/+7OSlYIwl+lIY7W1dB+/xu4PxS3OnKJ/o/v+Xz/WKsWiO1cUi5Xaw1+tpeostKpngKGYy/2LYSkd/v2fv//7uDJnPP7371ez8eHL/enTeJPrC17wghe84AUveMELXvB/h35vjwMk3zaPNoksCf9fpJBCe+1IGaVubq7BOo6DtUf113Zer8W/9XiTxDKdU9i/GKoDbPvD84awEgfDyzHN7nW5tqPMIOjelQu4v+byTqWsak7Uvdmu7MSH3inX4B/GT7JCrTD51rWdGok6WeDbH/g0FLlg6/mJDew/UQozG1bLVMu3Dd+wR/l3ol5P1a+BpyaCtCMerlO2+uM59bH+K9vTnAdkaajIQ5WyiA6xY8rzhr2Io+NuKUK/fNwoR6TJI1RKjv7vUYlzFFlXisKaZU4qVgLnTHE/szoVkBbJNrjARqLIWQ5GEUdlv9NEHIuIY1O0lJdCyge8FivenOTYRVEpNvlvutueimPkXvQajcGgES1aj7/vN+CoCnCn4ihm1mEVuNq6PKQPm+R22mPwxjlsa/LfdHaIimOQuuENTkReyt7JMGDJt23I0dmRtmQ6jkE/I5Rv/ciD6lTXuNxaRTe1R8ExKBQfxNKn+xd5L0g3ijjKLcBScgwqdsCWFBV1ZbIAOxXHIHUDhvoPzz2vMZpw9Lck0oS0HIOGHfXJN4i+nFM6BaXiyHs2SyliveFwfOaIpHT8A6flmNvgKdKTPBohPKxAJ++k4ShSN6lEf86xdsRzwXBVQWqOQbmHexNOHN+MU5tapOLI/0JlwXOO9Q2RDMZqQLPTc8yt8C0ZZpYv8wwi8uUcHOnnkUi8DTgGKbbFj/G9YoFjh9cmMSH5oi7S3Z2WnpxqPw5U+zFEyLErNBtsSQscc6tiS/K3kYjNOL0AKxVHEZYiNmTIMayhiHfMtsExd8Tlwj9LX/PNsDO9w0wqjmE4XJm1GXEMSreYM7lcWOEY9NEp3rFZmzGXkmNYS+U1LuX82zHH3OttB8iXHY5iSzqcYnFWUWs6jlESjtcoXUILOcYx6I8xuZjY4Tgu34kvETXScZwU/vmW42C4HpvOCccwrXC8aSxxjAqJqJ4iE6TkmBvFYv4+z/OxIyDGMbe6w2LZ4LY4dkVapDu7bUdajv4tHGQ2eN5FwDLOMWhC6N41x+O2wXFZ3BQ12nal5uhfUNdLMXeHb2mJFQs45uJb0hLHg7BmgOxtPIYFjj4OT4aDRsQzIAk5imbiLKgkssOxe1cMjlVfQOZ6rsbRuyxFfgBeAwA5BnVNTHjU7HAUN/FrkdI/X31E6AkLOSgCQBxD8533rKM4lnV8VhHavJdq/ShYH9R7R0JY5ZjL7QXZjgOZY5B8z7ekgmN3l6lr4lYL6g5r4r2dfNzHYn1QrzsKYJljrhe86+hQ5hg0Py0fqTjmVvw1V1RUyPADWdF+rMsb6bMKZ6YwbDBscwxy5f17usQxKA9ntY0DBUde2MUq8rc56n3Kb+SsEqxQsSXLNu3HmY/1BoFRKXPMLYt1dX3MZI7Clpa7EGxwZ3tdmiPRvGs73KbBlqxY8QMM9Tj2z0mOubVtce44ci1lUxgnN4iNeLehXCTcFQ7j8U1clBJNK8YiOfZP1oExEYwdlhT1RnKbmGAeVWs1dPWKbSnVi/JxSMWHwm8j30d56WncLBY/XZGeKIpjn7uD426MYJ8BU3HfVwopkhXUroyUHCev8ZM4Bn2164CksIPlFkXLO8gsDl5lmdy/OhJDncxkWD4Vd1D1uU7gSFZflJL5R5OS47jXiVz3G/TkKOyODaWDj2L9Si9PO+C7GkZ1OmK1hq/T1ecYuMAbUQlxUMwIfTdiVYYRnAgjEQCJYgEyx8ggkjl2t0SCvOusHHeazc7xiisiT9v4AtDkDhx3C/qogi15Q2xJcq2GVajDw16vdzgM79vQ3I+yjLl93OfB5FH43GCP5Bg2lFTUbx9cC1KsWC4zt14OeqIUsJNdRAKYi79YrALqpYDkmXMY2UqD8W0bl9v2whIO/5/PS8NhaRA9x/cxwTHsoaaqUT9wowT5qFSP1SWKojF1XboViBs69S45WjtQbx9lQ5FJvngsoTrwuPL3a8oxqxx/Dywj+rh0b+vxLjKsUpNvOHzCaoq2JMLXQHSH4RcMwpQ+yUPjV+V+O5FirF4j8EV23FpN3azlaKdYq6h9vhu3hZrLBNyy86jYX8d1VmSqD7d3mFtQZ0Ns1CtFyj15WBpPjuedqzsY9NcHcfvYawyjPbvxqBqjj+7x7SPpZjrY3L25dpzrrY/L6k+vbe2qmRxt3VF3nY3HW/oatF9q5PlsDkoj8qLa2/ft44Bi41zhhEyMbqfTsdx5ZDr6h/v7o5nFxHv+U/5jsd/hf8N6HVTHF+pMAAAAAElFTkSuQmCC;" parent="86" vertex="1">
                    <mxGeometry x="50.66999999999996" y="52.2" width="69.33" height="67.8" as="geometry"/>
                </mxCell>
                <mxCell id="110" value="" style="endArrow=classic;startArrow=classic;html=1;exitX=0.5;exitY=0;exitDx=0;exitDy=0;fontColor=#66B2FF;strokeColor=#66B2FF;edgeStyle=orthogonalEdgeStyle;" parent="1" source="142" target="65" edge="1">
                    <mxGeometry width="50" height="50" relative="1" as="geometry">
                        <mxPoint x="630" y="-440" as="sourcePoint"/>
                        <mxPoint x="310" y="155" as="targetPoint"/>
                    </mxGeometry>
                </mxCell>
                <mxCell id="113" value="S3&lt;br&gt;ALB log" style="points=[[0,0,0],[0.25,0,0],[0.5,0,0],[0.75,0,0],[1,0,0],[0,1,0],[0.25,1,0],[0.5,1,0],[0.75,1,0],[1,1,0],[0,0.25,0],[0,0.5,0],[0,0.75,0],[1,0.25,0],[1,0.5,0],[1,0.75,0]];outlineConnect=0;fontColor=#66B2FF;gradientColor=#60A337;gradientDirection=north;fillColor=#277116;strokeColor=#ffffff;dashed=0;verticalLabelPosition=bottom;verticalAlign=top;align=center;html=1;fontSize=12;fontStyle=0;aspect=fixed;shape=mxgraph.aws4.resourceIcon;resIcon=mxgraph.aws4.s3;" parent="1" vertex="1">
                    <mxGeometry x="1060" y="10" width="45" height="45" as="geometry"/>
                </mxCell>
                <mxCell id="121" value="ECS&#10;(Fargate)" style="shape=image;verticalLabelPosition=bottom;labelBackgroundColor=#ffffff;verticalAlign=top;aspect=fixed;imageAspect=0;image=data:image/jpeg,/9j/4AAQSkZJRgABAQAAAQABAAD/2wCEAAkGBxQQEhIPERARFRUVFxIVExYXFRUWFhIXFhUWFhUVGBYYHSggGBolGxUVITEhJSktLi4uFx8zODMsNygtLisBCgoKDQ0OGxAQGy4mICYrLS8tLjcxLS8rLS0tLSsuLS0rLS0vLS0wLS0tLS0tLS0tKzAuLS0tLS0tLS0tLS0tLf/AABEIAOEA4QMBIgACEQEDEQH/xAAbAAABBQEBAAAAAAAAAAAAAAAAAQIDBQYHBP/EAEUQAAECAgYFCQQIBAcBAQAAAAEAAgMRBAUGEiExE3GBkbEiMjRBUVJhcqFzgrLBByMzQmKSs9EUosLSFiRDU4Pw8cNU/8QAGwEAAgMBAQEAAAAAAAAAAAAAAAUBAwQCBgf/xAA3EQABAgMEBwcDBAMBAQAAAAABAAIDBBESITFRBUFxgZGhsSIyYcHR4fATFDMVIzRSQnKC0iT/2gAMAwEAAhEDEQA/ANDHjOvO5RzPWe1M0zu8d5TaRzna3cUxfP3vdaN5xXsWtFBcpdM7vHeUaZ3eO8qJC5tuzKmyMlLpnd47yjTO7x3lRIRbdmUWRkpdM7vHeUaZ3eO8qJCLbsyiyMlLpnd47yjTO7x3lRIRbdmUWRkpdM7vHeUaZ3eO8qJCLbsyiyMlLpnd47yjTO7x3lRIRbdmUWRkpdM7vHeUaZ3eO8qJCLbsyiyMlLpnd47yjTO7x3lRIRbdmUWRkpdM7vHeUaZ3eO8qJCLbsyiyMlLpnd47yjTO7x3lRIRbdmUWRkpdM7vHeUaZ3eO8qJCLbsyiyMlLpnd47yjTO7x3lRIRbdmUWRkpdM7vHeUaZ3edvKiQoL3ZlFkZK/0h7x3lCjQnt6WUCp6RzneZ3FRTT6QeU7zO4pk0leO0dqZtwCJomiaJrmilE0TRNE0UQiaJomiaKIRNE0TRNFEImiaJqSjwHRHXWNc49gE//EAEmgQTS8qOafDYXENaCScgBMnYFpausk4ydHfId1uJ2uyGya0UKDBorJgMht6yTidZOJKbS+h4zxaiGyOfDAb+CXRtJQmdmH2j4Ye+7iud0ijvhmT2OaeoEET3qGa6VBpEClNIBZEHW05jxkcRrVLWNkWmboDrp7rsRsdmPVdR9DxKW4DrQ5+h5LmFpJlbMUWTy9QsfNE16KdQYkA3YjC3sPUdRyK880ocxzTZcKFMg4OFQahE0TRNE1FFKJomiaJoohE0TRNE0UQiaJomiaKIRNBKJpJqCFKvkIQnyVqkj853mdxUSkjnlO8zuKjmkr+8dqZNwCEJJomuVKVCSaJoQlQkmiaEJy9FCoMSMbsNjndsshrOQWrqiyrA1r4pLiQDdGDRPqPWVc0ulwqIwF0mNya1rfQAJzB0Q6zbjusjnvOA5pZF0k2tiC20eXqeSo6usgBJ0Z8/wNy2uzOySvHxYNFZIlkNvUBm7Zm4rLVla175tgt0Y7xxefkPVZ6LFLyXOcXE5kmZO1XGelZUUlmVOfvidguyVYk5iYNY7qDIfKDaalamsrX5tgMl+N2exvVt3LNUmkviuvRHuce0nh2KCaSaUzE3GmD+4bstXD1qmMGXhQR2Bv18fSgUkOIWkOaSCMiDIjatDVlq3sk2ML7e3J4+R/7is3NJNcwJiLANYZp0O0YKYsCHFFHivVdMolYQaS0hrmunmxwE9rTmqusrJsfN0J1w904sPzHqsQ10jMEgjIjMK/q21UWHJsT6xvjg4e917U3bpKXmRYmmbx8qNxKXGRjQDal3bj8oeSrqfVcWAZRGEDqcMWn3l4l0er63g0kSa4TIxY4Y+OHWNS8NZ2VhRJuhnRu7Biw+71bFXF0RabblnBwy98ONNq6h6SsmxHbZPLh6XLCoUtKgGG90N3OaSDsUU0mIINCmgIN4QhJNE1CEqEk0TQhKgpJoJQVIV8hIhPUrVLSTyneZ3FRzT6RzneZ3EqNJn947UybgEs0TSIXKlLNE0iEISzQSkQVy7AqRiuqxIoZCMQiYYwuIGZutnL0XmoVbQKSLrXNJObHSn+U57FLWHRonsX/AVy8Fesn558s9tACCDUe/svOycmyOxxJoQcfZbus7Jwok3Q/q3dmbDszGzcsrWVTRqPz2G7324t39W1eurrUxoUg86RvY7nDU795rVVdaGBH5N6644XXyE/AHIrH9OQnO4bDuHLA7jVarc5Ld4W2/N43ghc5mia6DWVmIMaZA0bu1uR1ty3SWUrKzsaBMlt9veZjvGYWCZ0bMQLyKjMeYxHTxWuBPwY1wNDkfLV5+CqZomvVQatixjKHDJ7TkBrccFqqtse1snR33j3W4N2nM+irl5KPHvYLszcPmyqsjzUKD3zflr+baLJUWiviuuw2OcfAZaz1bVpqtsfk6O+X4GZ7XftvWhj0qBRW3SWQx1NGZ1NGJ1rNVnbBzptgNujvHF2zqG2aZ/ZycpfMOtOy9vMmiwfczUzdBbZGfv6Cq0rGQKIz7kNvac3bTi4qWrqcyO0xIc5TLZkSnLrkuYUmkOiOvPe5x7SZ/+Ld2I6N77vktUlpAx4302to0A7dW4bFnm5H6ML6jnEur6796yVoj/mY3nPAKtmrC0XSo3nPAKuXnZn8z/wDY9SncH8bdg6BLNE0iFSrEs0TSIQhLNKSmpCoKkLQISITxK1SUjnO1u4lMTqRzneZ3EqJKH947UybgE9CYhcqU9CYhCE9IVM6hxAzSGG8MwF4tIGOUic150PaQL0NIJuXU6w6LF9i/9Mrl66hWPRYvsX/plcsTvTffZsPUJVon8btqekTUJJRNVcVbaGNBkA683uvxGw5ha6prSQ6QQyTmRDPknEGQmZOHzkucq8sb0uHqifAUzkJ2OyI2HWoJAob8TS75TwWCclIT2OfShAJqPAa81tqzrKHRmBz5gEkNDRiTnqG1ZGs7XRYk2wgIbe3N525DZvVpb/7OF5z8Kw606UnI7IphNNBQYY8cVRo6VguhiI4VN+OHBPe8uJc4kk5kmZO1CYhI6Jsnrf2H6N77vkueroVh+je+75Jrof8Ak/8AJ6hLtKfx9481kLRdKjec8Aq9e+0fSo3nPALyQaK94c5jHODZXi0EynlOWpYY7SYzwP7O6lbIRAhtrkOgUaExCoVqehMQhCekKalKg4KVfoSITxK1SUk8t3mdxKjmnUk8t3mdxKZNKH947UybgEs0TSTW1slUADW0iM2bjixpyaOpxHaers4XS0q+YfYbvOXzLWqZiYZAZbdu8fmepVVT2WiRpPf9WzxHKdqb1aytbQqlgUYXg0TGb3kEjxmcBskvHX1pmUecNgD4nX3Wa5ZnwCxNPrOLSDOJELuwZAamjBNXPlJI0YLT88vTcNpS4MmpsVebLcs/XethaGu6M6FEg375cDK6JgOGLTeylMDJYOaWaSaVTk0+ZNpwAu+VTGVlmS4striuq1j0WL7F/wCmVyua6nWXRYvsH/plcsmmWmu+zYfJYdE/jdtSzRNJNE0kTVLNXVjelw9UT4CqSau7GdLh6onwFaJT88P/AGb1Cpmfwv8A9T0KvvpA+zhec/CsNNbj6Qfs4XnPBYea1aV/knYFn0b/ABxtPVLNE0k0TS1bkTXQ7DdG99/yXPJroVhei++75Jrof+R/yeoS7Sn8fePNY+0nSo/nPAK7sjW8CDDMOI4te50ySDdyAAmMtvaqS0nSo/nPAKtms4mHQJlz20rV3Uq8wWxoDWOwoOgXUKVVsClNvOax08nsIn+YZrK1tZGIyb4JMRvd++N2Dtm5UFDpsSC69Ce5p8MjrGR2rZVHaxsSUOOAxxwD8mu190+mpMBHlJw2YrbLtR9/JwosRgzUqKwjabl7enBYg4YHb4JJroFpqgbHaYkMSigTw/1AOo+PYVz5LJuUfLPsuwOBzW+WmWTDLTd4ySzQSkmkJWU4LSFoUiEJ2lao6Tz3eZ3EqJPpPPd5ncSo0od3jtTJuAXpoEMPiQ2HJz2NOouAK6VaKkug0aK+HgQAAR92ZDZ7JrljXEEEYEYg9hGS6lV1Mh0yBOQIcLr290yxH7HUnGiiCyJDBo4i48RyJ5pVpMUdDeRVoN/LqByXLpoVxX1n4lGJIBdC6nDq8Hdh8clTTSmJCfCdYeKFNGRGxG2mmoKVIhCrIXYXV3DTUYhhH1kEhvvMkOK5ZEYWktcCCDIg5g9hWosnaNsNogRjJs+Q7qbPqPhPr6lpKxqaBSgHOGJGD2GRl1Y5O2zXoI8IT8Nr4ZFoYj5yNKFI4UUyL3MiDsnA/OmIXMELU0yxMVuMKIx47Hck/MH0VTSLO0lmdHcfLJ3wkpQ+TmGYsPXmKhNGTUB/dcOh4G9VivLGdLh6onwFU8WjPZzmPbraRxCt7FdMh6onwFEtdMMB/s3qFMxfBeR/U9Cr/wCkH7OF5z8Kwq3P0hfZwfOfhWGYCcACdWK0aUI+5OwLPo0f/ONp6oQvdRqkpETmQH6y26N7pBXFDsXGdjEcyGOznO9MPVZocpHid1h4UHE0C0PmYMPvOHU8Besyul2ToboNGa14ILi50jmAcgfGQG9FVWeg0aTw0uePvvkSNQyHFVtprTtY10KA4OeZhzhkztAPW7gm8tLCSBjRjfSgA+XnpmlUxMGcIgwRdiSflw5nJZWvowfSIzm5F7peMjKfovAkQkb3Fzi46yTxKdNbZaG5JUJqs6nqaLSXSY2TfvPPNb+58AhjHPNloqUOe1gtONAttYylui0YX5m64sBPWAARunLYsXaSGG0qM1uV6f5gHH1JXQGNhUKBKcmMGZzcTxJK5lTaSYsR8V2b3Fx8JnLZknGkuxLw4TjVwx4EdeiU6P7ceJFaKNPrX3UKCkQUkOCcLRITUJ1RK1RUnnv8zuJUSkpPPfrdxKjmlLu8dqZNwCF7qprSJRn6Rhzwc081w7D+68M0TQ1zmkOaaEIc0OFlwqF06qa/g0oXZhrznDdKZ1dTh/2S81Z2RgxZuZOE78OLTraflJc6mrurrU0iBIXtI3uvxlqdnxTdmkYcVtiZbXx9sRtBSt2j4kJ1qXdTw99ew80+n2TpMLENERvawzP5TjumqWLDcw3XNc09jgQdxW6oVtoLsIjHwz2jlt9MfRXEOn0akCQiQYn4XSn+V2KPsJaNfBibjfyuKj72Zhfmh7x8IXKV7qBW8aj/AGcRzR3cwfdOC6BSbMUZ+Ohl5S5voDL0VdGsPCPMixW67rvkFX+lzUN1WEbQSD83rsaSlogo4HeKjzXioluXDCLBafFpLfQz4q1g2zozszEbrb/aSqeNYWJ92Ow+ZpHAlQvsPHGT4J95w/pV7YmkmYtrtoehCqMPR0S8GnEdQVrYFoaM/KkQ/em34pKeBFgON5joBd2tLCd4WDdY+lD7rDqe35qI2Tpf+z/PD/uVn304LnQSdgd6FV/ZSh7sWm8eoXRqQITpaTRmWIvXTLevM6taPDw0sEeAc3gFgjZOln/R/nh/3KRtkKUfuNGt7fkp++mjhAI4/wDkKBIyw70YHh6lauPa6itye5/lYeLpBVNMtz1QoG15/pb+68LLE0g5vhD3if6VPDsNEPOjwxqDncZKt0XST8G02U8yVY2Fo5l5dXf6AKlrGvY8fB8Q3e63kt2gZ7ZqtW7g2Ghjnxoh1BreM1Y0eylFZjoi4/ic4+k5eiznRk3FNp5FfEk9AVf+oysMWWDgKei5qxpJkASewYncrig2YpMWU4ZYO8/k/wAvO9FvTGo1HEr0CF4C607hiVU022kBmDA+Ifyt3nH0Vn6fLwvzxN2HqTuoq/vo8X8MPfj6Dmkq2x0JknRXGKezms3DE79is6xraBRGhriAQOTDYBe/KMh4nBYysbXUiLMNIhN/DzvzH5SWfc4kkkkk5k4k7UOn4MFtmWZv+XnfRDZCNGIdMO3D5QblaV5XcSlOm7ksHNaMh4ntPiqtE0TSmI90Rxc41JTRjGsaGtFAEIKJoJVZwXYWiQkQnaVKhpPPf5ncSolJSOe/zO4lRpS7vHambcAhCEKFKEIQhCEIU1For4rrkNjnnsaCd/ZtRZrdiitL1JRqyiw+ZGiN1OMt2SsIVq6Uz/VvDsLWn1lP1VnVdiXOk6kPujutkXbXZD1WpoVUQKOOTDYJ4FzsXGeErzuCay0lNkd4sG014C7ilczOyte6HnYOp91kmW5jDnQ4R2OHzXqh2971H3P/AHaratLJwI03MGif2t5p1sy3SWOrWzUejzN2+zvsxG0Zjh4ruMdIQP8AKozAB41BPl4rmD9hH/xAOV44X0PXwWg/x63/APO784/ZSC3cPrgxNhBWCmlWYaSmcxwHktJ0dLf15n1W+NuoX+1F3t/dRut2zqgP2uaFhUI/U5nMcFH6bLZcytpEt53aPvf+zV5olu4p5sKENd4/MLKTVxVlmqRSJG5cafvv5I2DM7pIbNzkU2WEk+AHp1UulJSGLTmgDxJ8z0Use11KdlEDfKxvEglVtIraNF58eI7wmZbhgt3Vlj4EKTnziu/Fg0amjPbNWVNqmBHbdfDYZYAtwLfAFuI1LV9hNxG1e+/KpPHVwWT7+Vhuoxl2dAPc71yhItbW9inNm6juvjuOkHbDkfRZakUd8NxZEY5rh1OBBSuLLxIJo9tOnHBM4UxDjCrDXrwxUaEIVStQhCEIQgoSFQcFIWiQhCcpWqCkc9+t3EqNPpPPfrdxKiSp3eO1Mm4BOQmoXKlOQmoQhOXUbIQWsokItABcC5x7TM4lcsXWLKdEgeX+oprokfvHZ5hK9LfhG3yKsKS1xaQxwa6WDi28BsmJrnte1LTS+cS/GE8HNMwJ/g+7ukoaLaiPAe4XtIwOdyX4yxOTsxw8FuagrcUuEYoYWScWEEg4gNdgescoLUXwJ7sVIOWziDvv2LKGR5HtgAjP5QjmFV2Yq+mQpaWKBD/23fWO2EHk7zqWqWPtFa50CI+BDhi82QL3ZYgHBozz6ym2HrKLSIkd0V7nSDJA4AYuyaMArYMxBhvEBhJN42U27NQoqo8vGiMMw8ACgNM60y26zVU9u6O2HSWljQL0NrnSwBdeeCdzQs4tR9IvSGeyb8cRZVJZ0ATD9vkE7k6mAzYnIXuFTUi5pf4eJd7bpy7ZZy8ZKvWdzHN7wor2uDsDVaOwkBr6SLzQbrHOE+oggA+pXTFzj6Peku9m7i1XFuqfEgGjuhRHMP1k5ZHm5g4HanklFEGUMQitD5gJJOwjGmwwHEdAT5L1WkoNMiT0EYXe4OQ4+917wsvU1UU0RJw2xIZBk5zjdbtB5+4q5qC2DosRkCLDBLiGh7cMfFp+W5aOuqzbRYRjOaXYgACWJOWJyCkwpeY/fD3UGN5u8xuOxciLMS4+gWNqcLhf5HfvXooTHtYBFe17utzW3Qdkyq61VHbEo0UuaCWtLmnraRiCCsZWFraRHIa12iaSMGZnHrfnukt1aLotI9m/gr2TEOOx7W1oBr11rnfq1qh0tEgRIbnUqTq1Xjdr1LkiVNQvMr0ychNQhQnJCkSlBwUhaNCEJwlaz9I579buJUafSue/W7iVElbsTtTJuATkJqFypTkJqEITl1iyfRIHl/qK5KtjZi1zIMNkCKxwa2Ya9uMgTPlNz68xPUmGjozIUUl5pUeYS/SUF8WEAwVoVl6fDLYj2uaWm87Agg5nqK3v0ddGf7Z36cNW74dHpjJkQ4re3rbtGLTuTqmqllFa+HDLi1zy/lGcpta2U+zkrdLSRgxbYILSD5fKrDMzzYsEsLSHXcvmC51bHpkfWz4Gq7+jZhvR3SMiGAGRkSL0wCtE6zcB8Z1IiNL3OIMnHktk0N5ozy65qakVtAgOZBL2hxLWNY3EguIAwHNGPWohyZhxzHiOAFSRvrS/fheiLOCJAECG0k0Fd1Cengqu0FmzTI7XmIGMDGtOE3EhzyZDIYOGK99XVDR6KLzWCYze8gkeMzg3ZJWVJjthtvvcGtEgSTICZAGOsheGtqph0tgD3P8AwlrzLXd5p2hbDAY1xiNaC7x+GnBYxMPc1rHuIZhcPcV4qL/E9G0mi04n3sbk+y/KXyS1jUNHpQvFoDjlEYQCfGYwdtms1/gF1+Wnbo+26b+q7ltmtTVNUw6IwtY55HWXPJGu7zW7AqoRjxatjsFPmq/jcrYwgQaOgRDX5ru4XqpqCzT6JSDEvtfDLHNBycCS0iY2dS8f0kQyRAIaZDSTMjITuymepbGBGa8BzHBzTORBmDIyOI8QVW0KvoEdzoQeA8FzSx+BMiQZTwdl1IiS8IQvog0DsNfjciHMRjG+s4WrOPMLnVmul0f2jVuLf9EPnZxK9T7NQNKyOxuje1wdycGul1FuQ2SXrrirG0qHonucG3muN2UzLqxyVUGTiQ4ESHdU1pworYs5DiR4cQVoMeJK5HBaS5oAJJIkBiTj2LrNo+i0j2b+CbRKDR6Gy81sOGBm9xxOtzsdizdp7Wwnwn0eCC6+LpeRJoBzkDiTsXEKE2ThuMRwq4YbjhnjkrIkZ05FZ9Npo048MeGaxKE1CRp4nITUIQnJCkQVBwUhaVCRCcUStZ+lc9/mdxKjTqVz363cSo0rdidqZNwCchNQoUpyE1CEJyE1CEKejUl8J1+G9zHdrSQfTMLUVfbuKwXY0NsTscDcO3CR2SWQQrYUeJC7hp04YclVFgQ4vfFfmePNX1a2spEeYvaNh+63De7M+gVfUh/zMD2sL9Rq8K9lSH/MwPawfjap+o+JEaXGpqECGyGwhgoKLpVt+hRv+L9Vi5zVldR6N9nEcB3Ti0+6cN2K6baahOpFGiQYcrzrkpmQwe1xx1BcrrCrotHN2LDc09UxgdThgdi3aUtsiiI2o7OO86/VL9FGG+EYbqHtYbhq9F1z+JP8PpsL2iv+E7l7dNcrrKu49J+0iuI7o5LR7oz2rqB6H/wf/NcmoFXxY5uwobnnwGA1k4Dau9JuebDBW+t2eGpcaMawB7yBcccsdepdPsV0KBqf+o5cyrP7WL7SJ8ZXVLOUJ0CjQoL5Xmh05GYxeXZ7Vymsz9bF9pE+MrmebSXhNOoeQXUg4GYiuGfmVZVVaikUeQv32D7j+UNhzG+St6bb2I5soUJsMyxcTfI1CQG9Y5CxNmo7W2Q40+azfzW50pAc60WivzHUeC9NMpsSM6/FiOefxGctQyGxQJqFnJqalaAKCgTkJqEITkJqEITkhSJCoOCkLToTZpU3StZ2lc9+t3EqNPpPPfrdxKjmljhedqZNwCVCSaJrmilKhJNE0UQlQkmiaKISoSTRNFEJUrXEEEGRGIPYe1NmiamiFsKot1EZJtIZpB3mya/dk70WuoVaUemNLWuY+fOhvAnta7PWuQzQ10iCDIjIjMLfB0hFZc7tDxx4+oKXxtGwX3t7J8MOHpRdv0LbujkLsrsuqUpS3LwU2saPQ2hriyGBkxox2MbxXNRaelXdH/EPl24X/wA8r3qqpziSSSSTmTiTrK0xNJin7bb/AB9vZZoeijX9x13hr4+hWxra3bnzbR2XB33SL9jch6rHEzxKSaJpZFjRIpq81TSDAhwRRgolQkmiaporUqEk0TRRCVCSaJoohKhJNE0UQlSFE0hQRcpWmQkQmyVrPUnnv1u4lRJ9JPLfrdxKjmljiKnamTcAlQkmiaioXVEqEk0TRUIolQkmiaKhFEqEk0TRUIolQkmiaKhFEqEk0TRUIolQkmiaKhFEqEk0TRUIolQkmiaKhFEqEk0TRUIolQkmiaKhFEqEk0TRUIolSImkJUEiiAFp0JJoTVK0+PznazxTEIXS5GCEIQpUoQhCEIQhCEIQhCEIQhCEIQhCEIQhCEIQhCEIQhCEIQhCEIQhCEIQhCEIQhC5KlXaEIWlY1//2Q==;fontColor=#66B2FF;" parent="1" vertex="1">
                    <mxGeometry x="620" y="-230" width="50" height="50" as="geometry"/>
                </mxCell>
                <mxCell id="66" value="" style="endArrow=classic;startArrow=classic;html=1;fontColor=#66B2FF;strokeColor=#66B2FF;labelBackgroundColor=#FFFFFF;jumpStyle=arc;rounded=0;edgeStyle=orthogonalEdgeStyle;exitX=0.5;exitY=1;exitDx=0;exitDy=0;" parent="1" source="64" target="65" edge="1">
                    <mxGeometry width="50" height="50" relative="1" as="geometry">
                        <mxPoint x="360" y="-650" as="sourcePoint"/>
                        <mxPoint x="420" y="-550" as="targetPoint"/>
                        <Array as="points">
                            <mxPoint x="310" y="-570"/>
                            <mxPoint x="530" y="-570"/>
                        </Array>
                    </mxGeometry>
                </mxCell>
                <mxCell id="130" style="edgeStyle=orthogonalEdgeStyle;rounded=0;jumpStyle=arc;html=1;exitX=0;exitY=0.5;exitDx=0;exitDy=0;entryX=0.25;entryY=0.462;entryDx=0;entryDy=0;entryPerimeter=0;fontColor=#66B2FF;strokeColor=#66B2FF;" parent="1" target="120" edge="1">
                    <mxGeometry relative="1" as="geometry">
                        <mxPoint x="602.5" y="-412.5" as="sourcePoint"/>
                        <Array as="points">
                            <mxPoint x="550" y="-412"/>
                            <mxPoint x="550" y="-170"/>
                        </Array>
                    </mxGeometry>
                </mxCell>
                <mxCell id="78" value="" style="group" parent="1" vertex="1" connectable="0">
                    <mxGeometry x="414" y="-230.00000000000003" width="175.5" height="144.99999999999997" as="geometry"/>
                </mxCell>
                <mxCell id="77" value="Public subnet&lt;br&gt;10.0.0.0/24" style="points=[[0,0],[0.25,0],[0.5,0],[0.75,0],[1,0],[1,0.25],[1,0.5],[1,0.75],[1,1],[0.75,1],[0.5,1],[0.25,1],[0,1],[0,0.75],[0,0.5],[0,0.25]];outlineConnect=0;gradientColor=none;html=1;whiteSpace=wrap;fontSize=12;fontStyle=0;shape=mxgraph.aws4.group;grIcon=mxgraph.aws4.group_security_group;grStroke=0;strokeColor=#248814;fillColor=#E9F3E6;verticalAlign=top;align=left;spacingLeft=30;fontColor=#248814;dashed=0;" parent="78" vertex="1">
                    <mxGeometry x="-89" y="-50.00000000000003" width="180" height="190" as="geometry"/>
                </mxCell>
                <mxCell id="80" value="" style="shape=image;verticalLabelPosition=bottom;labelBackgroundColor=#ffffff;verticalAlign=top;aspect=fixed;imageAspect=0;image=data:image/png,iVBORw0KGgoAAAANSUhEUgAAAOMAAADeCAMAAAD4tEcNAAABDlBMVEX///8DKioAxY4Qh3UAGBiXpKQAIiIAw4lcaGgAKCgAISFc0agAExMAHx8AhHIAHBy7v78ADg5fopZxf3+X5MvEzMyBiooUxZCbycHp7e0qRUV6hIQAFxcAgGwAAAA+Vla0u7va39/09vbw/Png9/D1/fvE7+HM09PY9eyOm5uptLS169oty5q62dTK4t7k8e9Fm4xKnpBu2rhH0KSN4cbC39qq6dUkj352s6nN8ucQNDRBWVkZOjpQZGSNwLcwS0uu0swBs4ICgmKL28cAa1UBoXcAGB8LYlcCUUIDQzkOd2gCeFsDNjECXkqZxr+Du7FrkYwITEUDER4AMCsAWU5cxqFctJVclINce3RfdHRHgUXSAAASjUlEQVR4nO1d+UPbRha2jJEYnzgcrgkGH5jTCcEQiAkEur1bmmy73e3y//8jqxlJtt6befZoNJYhy/dbiezO5zm+eadyuflhtH9ysr83x//BotFbH+Q9z8s3SieLHsq8sD/w8gE8r/R1zuVlxFCwzI8WPZ45AFDkLL++9bqPKPrYX/SYLGNvIFHMD3qLHpVdDOVpzHvDRY/KKg4VFH2SX9W5c66imPfOFz0uizhRTuNXdbb2FAfO13bsrBPT6E/k+qLHZgl7DYqij6/kTqfSjfFEfh36gXSjAWfVO1z0+GygBDldokO2tOjxWQC6qPqSCE9Z7/lfW/syoxFi3V/0GNMC6oYnVuY5/Ntz148eOmHEDfUQ/O3ZXwQu4JRdBH+FavLM9QPNWCNUfGRNes/6IlCCE3YZ/V21S58pkG5MNh66pT9nQxKajXElPEmiH6dv7u/fP1GFQSsSWMTUKpbQv39XFTh7M/cBJwc+WcCCHFHLGOGtz3BJoNo6O81g1MlwMfVgGSpVBeN+KWQoWF49tancAxOVb6CZwlalUj/uW0txVKtPjCQ6cKSJ0tCPt9UlhOr7DEauDVI3IvTRjyDrR/+dzHGpm8no9YAYKA7OyynHrsCXFqbok/yQwdg1caJxk0H2B3ZEnkqzyNF6m8HotYDtDaVHY4Z+vFJyrJ5lMX4dXGhZFsNphuR7xUoVE3k//+Hr4FBHGCT9aMQf654pp9GfyHdP41qnJ/BTp/uemEaf5JcMGMzETN2IgO2PybbtXxHTyEk+hTvdue6FGx+/E/34QFN8EvqBBz5t/xD6cQpZXV3BY2fh+qFwN9IgHJFQN1pvPoPduXj9mG5vYJRU+vEWUernrhDpDHhMATYoZgQ0sHki9ANeVPnSfANZL1g/dHUjgkI/oG5UX/HHoFy2Ps+dxxRgB/FMv6KsHz20MIVUYDtrkfqhrxsRJEMSHjCtUCmgmixSPxI53EKgn+U7OGFX4VcgOWktbCKxbmg5TtG16Hu4Ur+JHvtGsUsXgWnuRhrD+Id++PEn9QnaRxeBBekHNhs1AxkgnP6z+1BVM7l/EvphGpCK6cc/fnTcP4gVefUE9GMEZhHag1MxcTd/+wtzHOdX9cmC9ONqEceOeYB47L/6reZTZL8QCvFq4fqB0xsS7JfoPP72gU+jU4wmElmei9cPpBuJEv7C3+f3CqfosIdgoj7hxz4tWD/SBU5FGs8PrhPA/Ul9ciL3QCtjtzntt9CC0I9fIo7soaX2wN1LVleW0HM30vB154c/nQi+fqhXIjK77lOPOwGQvZE8odG3O4MDJ8Svao/Ge3i0XmU5kUp7PhHWffmfgD0QyoDcIBnqh7a7kUYHTKNT2FA/hvQjQ0NyRnxGB5uFOEXHvSOeW5R+zIyzzUbHBdPoOPW2+sHeYhyRKXVDYLcIKTrspql+EutHqqFrI61u+FitOxjbR8Szi9APrfyFGbhzJY7suqN+FunHuyzi56WE7kYFjuVpdJzaI/F09o7IfTiLJrrRvGYKjuzp6Ac6cDTcjRKQbszUD5gOMX9DMkmYikDHUU3jFP04vZKiBfOEkbsR4bGmpuiwLeI8ydYRCXXDqF5jo0xMo+OUNfVjro5IpBueSQL8FtANBv+D0o8MHZGomspE/o/LgBU8YmtrxKeQ/2qO+oHdjQbT2L2Lk2LljS3w38UD9ceyc0RaqEfZBNNY20T3geJH4nNZ6Yd13WCsm+t+BPuT1g8wkXPTjzTuxhArlTjF2nIOn7PsjtAPVbjZPtbT2xsHwGx0dwWfR2BnlZfVH0X5rfNxRGplN87ATXxdsnJb/LGzAyaSMiTfZGBIWqibaoPzpRIZGq/B/bVA6ccZEY61B6QbeRPduAETVosEvwn/zrT0o3pl35DEVbgGX7GMdUP9D8Vb4vMoEcJ6RqQFdyM0G1lxsu+6u3CfUoYk1A/rGZEW6orXgL0Bzs+Nnfg/sRviGz7PVT8s1PcdMKAbUAdXoH4cq78C64fVi4AN3fgYp8HKq+Afn4B+WHc3Fm/RqQgXMumIPJubIYnDVEZmI5ioHWwoNsFKZi5hSKI8UIv6gcpwTOwNpBuyzsMHKnr60ZLi66aw4W6EMl+Wf/8u8CuzyqriW3KSflhzRKIDJ32YKib/E7TBRNKBrLlktOAwlYnZCHfbtXIb3QL9qFP6MQ9HZA+u1PS6QcnfAdSP6wz1w4ZuFOKjJ++jr4F+FDT1495gQAgozd3I3XindR3NdSpgIilH5FvrjkgLZiN0S1Uo+zCXO4InExXIemXZkET2RsPgR0P2xg6xz3KygZlRICt5VrwEqBvkNuNol+G9nXjsk1VHpI30hmsN3QjRvdV0REKRTKUffST/Jmbjbdzd6NQIt1uIgzr4QahAlk1HpAXd2ChqLb8Ij+AXIQNZ9uwPrBsm6Q16x8gYTTiRVCIE1g+DgYVIWk2lAOFupLEJLgKagSzzRAgbYSoY36gRbsX4J/QckafIEWmqHxbCVEfAmCio7A2MZTDzmokQLUNHJKqmGqS3N5iO2Q71g2231Y8h+8PQEWlBN6CXpjBdNyKgQBbliLShHzbcjcUp7kYaSD+oX+YstSGJzUYT3diFtxbCfSGhAz3KDnHBxYkQycdnw96AYYwV7Q9C/Si8Jh77kNKQxGEqgwMHqcA2IeeqT0LFcSn9QI7IpMcOClPNxd045aPAVCFvDl9SOSIt6AYyG+u02SgDOSILxE7upXJEWnA3rul5Z9RYnb9+rKdPi4NhKraV8ON6+pEikGXd3chqhLeURKesFch6b+yIzM7dSAM6Irepmy7uZ6L79ajJuGfi3EMHzmx7A6MLDUlGKA/WD92xWsiKJ9MbEnwF1A/qBmEWyLKhG1D+C0l0IwLSjyLhQUD6oXkRsJ4Vn1A3IrS3wY2eOpk/GzgiLbgbkW7UzKK9Xa1IkIl+YN0wcjcC3Si0Db6CA+kHZX8kD2TZ0A2Q3Uim3c6GZiJEUv1IXYWbw7pR1DUbZXTLcwlkWXA3Hid1N9LY1AtkfUgUyELpDSZhqm4RTqOJbowBNYjSj9NEGfUWdAMGEclNpIfjmlYk4ZsEiRA20htcuIfSZQl19Y7oHmo0PG0iLegGrKba1nM30kCOSId4TF8/kjX9U48JLq7d1MleKCNUM5BFXgT2kL2RPr1he1aYajaacCJd4ghD9gdZ0WtDN2DWWxrdiHCkF8jSc0TadzeW9d2NU76TaTkie1qBLPthKsr5mwzHBa2rIUykUwey0HtiTeyNJvT9Fixll8KM+oKe/bGkOnash6lmpDfoA6YUsGvisXu4WhWOSAtVuLCainSKJoelQFYfyX/qJhxkcNQAnbrW3WlWIoSN9AZwNpBOJhMg+8NMP5BuGLkb4YFDVd0aAemHbiIEnG8YpspbCFPZ0Y3xl4OJJF3Sn6Y4InF2o8EoUPHClOxGI2zBjHrijthfgohdBHBanFGYCpqNtnQjArI/NPUjZkjaD1NRYzAH1A8yReSMyIhE7sa8SRMOaMvW2kY8pqFT0HJEokLQsSFpwd3YrkCz0ZDINKQKZGF7w8TdmDgtLjmQI7JIBbKQfgR/Td/0D5mNidIb9AENSdI2/aTIiMS94k3kH1r/lK83LaB+UBeBviKQdZE+K74DvMYp3Y00oCOSXC2wo5C40QGXqlGYCrpUGTMmMQvw8Cb1CRiS/GhF+dRGb9uOVxOzStuYwyyAVFH6Rgz1w1+s0Ps/WDfAd/EaVXZ9tDw3gOY7lX9+QwDsSP8egK6qngG+je9GXzkKcwNomuT+VW0pAX0evkSi6L8JIMfMwP5Y0sGz5uj+pcWx+gZH44w4wp64mXH8aTbBYD/iNpwm+F1uw5kB2K+zCfq46mHXsRFA/+bMKD7oTSO3IS1syAbuipsFXL1pDHzJw2c5ka7mqRr4dPYG6Un+XJk9KrsUH8jXKQKKkbfjsJGaZOPnbGcSvKJmGsWxFdWzsFx/+7OSlYIwl+lIY7W1dB+/xu4PxS3OnKJ/o/v+Xz/WKsWiO1cUi5Xaw1+tpeostKpngKGYy/2LYSkd/v2fv//7uDJnPP7371ez8eHL/enTeJPrC17wghe84AUveMELXvB/h35vjwMk3zaPNoksCf9fpJBCe+1IGaVubq7BOo6DtUf113Zer8W/9XiTxDKdU9i/GKoDbPvD84awEgfDyzHN7nW5tqPMIOjelQu4v+byTqWsak7Uvdmu7MSH3inX4B/GT7JCrTD51rWdGok6WeDbH/g0FLlg6/mJDew/UQozG1bLVMu3Dd+wR/l3ol5P1a+BpyaCtCMerlO2+uM59bH+K9vTnAdkaajIQ5WyiA6xY8rzhr2Io+NuKUK/fNwoR6TJI1RKjv7vUYlzFFlXisKaZU4qVgLnTHE/szoVkBbJNrjARqLIWQ5GEUdlv9NEHIuIY1O0lJdCyge8FivenOTYRVEpNvlvutueimPkXvQajcGgES1aj7/vN+CoCnCn4ihm1mEVuNq6PKQPm+R22mPwxjlsa/LfdHaIimOQuuENTkReyt7JMGDJt23I0dmRtmQ6jkE/I5Rv/ciD6lTXuNxaRTe1R8ExKBQfxNKn+xd5L0g3ijjKLcBScgwqdsCWFBV1ZbIAOxXHIHUDhvoPzz2vMZpw9Lck0oS0HIOGHfXJN4i+nFM6BaXiyHs2SyliveFwfOaIpHT8A6flmNvgKdKTPBohPKxAJ++k4ShSN6lEf86xdsRzwXBVQWqOQbmHexNOHN+MU5tapOLI/0JlwXOO9Q2RDMZqQLPTc8yt8C0ZZpYv8wwi8uUcHOnnkUi8DTgGKbbFj/G9YoFjh9cmMSH5oi7S3Z2WnpxqPw5U+zFEyLErNBtsSQscc6tiS/K3kYjNOL0AKxVHEZYiNmTIMayhiHfMtsExd8Tlwj9LX/PNsDO9w0wqjmE4XJm1GXEMSreYM7lcWOEY9NEp3rFZmzGXkmNYS+U1LuX82zHH3OttB8iXHY5iSzqcYnFWUWs6jlESjtcoXUILOcYx6I8xuZjY4Tgu34kvETXScZwU/vmW42C4HpvOCccwrXC8aSxxjAqJqJ4iE6TkmBvFYv4+z/OxIyDGMbe6w2LZ4LY4dkVapDu7bUdajv4tHGQ2eN5FwDLOMWhC6N41x+O2wXFZ3BQ12nal5uhfUNdLMXeHb2mJFQs45uJb0hLHg7BmgOxtPIYFjj4OT4aDRsQzIAk5imbiLKgkssOxe1cMjlVfQOZ6rsbRuyxFfgBeAwA5BnVNTHjU7HAUN/FrkdI/X31E6AkLOSgCQBxD8533rKM4lnV8VhHavJdq/ShYH9R7R0JY5ZjL7QXZjgOZY5B8z7ekgmN3l6lr4lYL6g5r4r2dfNzHYn1QrzsKYJljrhe86+hQ5hg0Py0fqTjmVvw1V1RUyPADWdF+rMsb6bMKZ6YwbDBscwxy5f17usQxKA9ntY0DBUde2MUq8rc56n3Kb+SsEqxQsSXLNu3HmY/1BoFRKXPMLYt1dX3MZI7Clpa7EGxwZ3tdmiPRvGs73KbBlqxY8QMM9Tj2z0mOubVtce44ci1lUxgnN4iNeLehXCTcFQ7j8U1clBJNK8YiOfZP1oExEYwdlhT1RnKbmGAeVWs1dPWKbSnVi/JxSMWHwm8j30d56WncLBY/XZGeKIpjn7uD426MYJ8BU3HfVwopkhXUroyUHCev8ZM4Bn2164CksIPlFkXLO8gsDl5lmdy/OhJDncxkWD4Vd1D1uU7gSFZflJL5R5OS47jXiVz3G/TkKOyODaWDj2L9Si9PO+C7GkZ1OmK1hq/T1ecYuMAbUQlxUMwIfTdiVYYRnAgjEQCJYgEyx8ggkjl2t0SCvOusHHeazc7xiisiT9v4AtDkDhx3C/qogi15Q2xJcq2GVajDw16vdzgM79vQ3I+yjLl93OfB5FH43GCP5Bg2lFTUbx9cC1KsWC4zt14OeqIUsJNdRAKYi79YrALqpYDkmXMY2UqD8W0bl9v2whIO/5/PS8NhaRA9x/cxwTHsoaaqUT9wowT5qFSP1SWKojF1XboViBs69S45WjtQbx9lQ5FJvngsoTrwuPL3a8oxqxx/Dywj+rh0b+vxLjKsUpNvOHzCaoq2JMLXQHSH4RcMwpQ+yUPjV+V+O5FirF4j8EV23FpN3azlaKdYq6h9vhu3hZrLBNyy86jYX8d1VmSqD7d3mFtQZ0Ns1CtFyj15WBpPjuedqzsY9NcHcfvYawyjPbvxqBqjj+7x7SPpZjrY3L25dpzrrY/L6k+vbe2qmRxt3VF3nY3HW/oatF9q5PlsDkoj8qLa2/ft44Bi41zhhEyMbqfTsdx5ZDr6h/v7o5nFxHv+U/5jsd/hf8N6HVTHF+pMAAAAAElFTkSuQmCC;" parent="78" vertex="1">
                    <mxGeometry x="-29.029999999999973" y="49.28" width="69.33" height="67.8" as="geometry"/>
                </mxCell>
                <mxCell id="120" value="" style="rounded=1;arcSize=10;dashed=1;strokeColor=#F59D56;fillColor=none;gradientColor=none;dashPattern=8 4;strokeWidth=2;" parent="1" vertex="1">
                    <mxGeometry x="350" y="-230" width="600" height="130" as="geometry"/>
                </mxCell>
                <mxCell id="89" value="" style="shape=image;verticalLabelPosition=bottom;labelBackgroundColor=#ffffff;verticalAlign=top;aspect=fixed;imageAspect=0;image=data:image/png,iVBORw0KGgoAAAANSUhEUgAAAW4AAACKCAMAAAC93lCdAAAAkFBMVEX////MAADJAADrra3kk5PwwMDzz8/wycnrr6/55eXZYWHfeXnNAADYV1ffd3fhg4PWTEz+9/fQMTH339/77u7aZmbuurrRLS388fHmmpr119fghYXQJibXUVH++vrQISHopKTUQkLjj4/TPDzOEBDZY2PcbW3PGRnSODjRKSnnoKDmmZnODg7xxMTTQEDYW1szNfrvAAAL7klEQVR4nO2d6XqqMBCGZdzrggi1Hvetaq2t9393RxLCkgWSAEqR78/pc4AQXkMymZmEWq1SpUqVKlWqVKlSpdy1clo/zfrlu/PsiryGtuDp2RV5DdXBQIL2s2vyEnII7t6za/Ia2hqenl2R19Dm3m8b/eup30o4cWo9pD4llzWzViuZEydw61TEH6b7oAowmDy7Gq+ibzSogrGrmrhYdTP+uGXbP5d/d5nm3P3n0rZtPk+T2DBJnfzrqrkGMR17Ml/e6bEyjPG80e5Spw8JbjvnSv9VzX5dQmveoW79E4MVyT06mE9CDb1h4NNh+qj6/yk5Rw/PnD4ym3/EkY4w/+hNHO8yazJwL4Oq7+ZpRojCLPzf3d1JjnXAfLwjJUw3CzAq3FztCNVQdzLZq7EmxA2TDAGznpSV/oL68mANvO7AIt2vhgD65iz+dq8u1J3Ar0ep29Np2BHiHxcn/o6vLfMO2JsGOsOUsD3ig8pRK9bVxB3t1MwCNiZ+ulSdt0AemO/MYCPghklPgSoFap6yhI2Aw2c1teTL2WYNGxMfVHYKR41cYCPgywo4pdlHbrRd4LeqSwlrlydsBPy98lcR2bk2bQJ8XpmFSJsHwHZ5G/VnP2kBtHp7DG0X+Pnlx0w704lNIvDjaztlO9nA9oNpob/4JxqvnNLZS03bRTt4r3d+nLum06n7T7NTf78dBNBh+6oT+9U5raMV9vMfoau1XR8aPOTw/ciHLIzsfjrWBzPZx+o0ewcGOSxecNbTTtO04TAXWhn2zInMaewLE4iDf/k/X7FU16cNcItr167L/LQ/XtqBFeJszlHicH6tHlx/2g4w91FxJ4pDcl4kT6i7i8Y/obwmijWk/2euSxsMP0bT/Xc+8e52JKfSDbg5CjdxuJV0Vm99wG90enHUpA1XMhG3Ots7O25e2oCczHql7HDUGfqlnGRa6/uzncL22k2PNsCFFDnEPQM0OPdbE4ubN4OchuNzZRwxrQN+tKApDTRph2bgxIb84NywNak3zO0JQNBZXIJOHJZl61CsL/JoJMF9qUUbTuGRj/T9MVmujjjf+F9o1CyXCb4aB8Bwv6vXtqkFZ15eIYCeU3W187uUclkoXwHcNRq6PvVo/1DlnlzWv/prcKZDn3eZVg5efLp9RHuoQxvOjJFhgtFL1w/YI9IhjUrklf2J9LJa9jYwZvu9N8lg5c3k6tXmUKIppo2RoWm3VnYD7HKrm//rlyih0Brf5yMb96+JFu08l+zZe2/MLdOA+Ya7Ay0fIDNIZixvcMnxFXq80OSvqwE7d9r3auFkuVIZKHetDtq0u/k6N3DmBXzmepNHa6tDG3WpTp/r+ctO3TGKKm/zvctDpRMFxkv/pn3OGsCM5brfyzRc6mQ4wJt7pXUy6DWAOahlGGUyvnWMki906Rn9vci7htMy+QZ1gu44GvNZQkMtb+nEE3BXGrwWZWp9+Uorx/UNX0u2yyiXXzpPaXXcfmteoKZeyrBiPlprwA48JW4kIVe/Sclk6jTuUfj63M3uEknPMRU2gmEkLLwSpdVVh3ZkY6oWNQGZcPZJotS/XWTGVnvybfYYmZsmd+HU95DS0RtR7CN9RD6jYjXr7Ngq+DoqbqillcIdv9FOU6ZIgPEm3nacucmxIu3/sYnMS+YsLyrRYg7cJOm0jv2EhqM2arW0aPOydQJJ4TbQ3nbiQpxB/DIVgCMNfMCc4+Omj7xJwZklL5RWxK3TlRiihBxPsrhd4KLaSiTgAp13nzVumTC5Gm694GR841bA7aZecYuQC1HDMtKpZYvbkVpNqoS7q5dUkrDCVwW3AWfOOCCb7gyL8MWZ4u7KuZGUcDMVlLpDUhhLCbdhrBneCiHqcU64p5JOOxXcP3qNO8mEU8Rt7KnrHZXKhHJcssS9l72/Au6TwnMFSoxhqeKmX5c3pYtDmbvMMW3c/2QfQQH3Ra9xJ8awVHFT32uYqV0eTGmzw23J21bSuOXLjN4gMRtNGXc0FnRTrI/ft2WHW35lkjxuzSXByfkH6rjDlVZtBUEcKTvc8r2sNG49I1CmfHXc4VUOyisMfzPHrdCdSeM+JpfFLd+99jt2WqmBO2TtKA2USKQymeGWHijlcSsOSL5c584KFnFZCDq4A+8JN5nL9wjxjpG6ZIb7XaHikri1ZjieXXKfhkBTAfd1/BESdzfCM7l4yrnnoVfvYG0476Rv12SGe0SXo+oRZKbduo0bNSV33W9MpgODmwo/fPPuTewddkiJeqKmW+Y4yQrNDPdX9OTt3BSqxw3SjvqN6OtP/4CyQiYbmuBS/iEF3LzIv995M7jpyNyKuZS8aJnhjgZvIeEjH6y67qdqtpvAQazbuA13zuxF7kFU50TcnB/bfylZ3MynMugTCocbR38BbsKaSQp13V7jFK7pTcbNxkfx8okaDzcdRaCds4XDHbx/YCBftXbjRk3Nm/YJv+ySjLvGFkx+u2TcdOZA4XCH+krs8VCwdKJCidzenEsY05HAzfQmZcK9CK7tcx9JWi44knR1Ft1OAvcnQ6Y8uEM9JY57aW+gFrmcH/aqSeFmXq9C4Y4agqpJSyEXG6q7pivQ8O0HFG3xd9NgJIF7yZS88Y4UAXeClXy9zX/EXgwndDPUIrnTDCkR69g+xc0rtYZKsSH4eNyJQxuAMRTFtELRdmxM6G9Y54+O1hIYe1gBN2sZ+UGZIuCWcVGBaAPVRt+/GgVStdYGewpKnYvj8cm4Wa+fD7UIuOVynUC0dLx99PYqQlbgVqYsvsLcmsLuKxE3x2V4JceKgFs2vOAPOLSsydLdicv9Uy95HkvOJGJoLhNpB2ZOIXBL57mIeN9HzMsBPZP2nnXSJhGDczEP651TgcCPWQjc0rYbCPoTJPT6p2jckr50tvVGPMTckv1hpxC4FVYrJQTK0+zIHftbxuFO1Lt/cTFw10ay3UlCStlWEgC37Lxwh3JzWNx0+8nfI1jz1kJLVT3224T67hKD43rOCncou52t4Nt7VGPqeC64a47kF8fixzP9GaXhReFzwB3+GdXbQz64a5Zkf9KPK2SRfH3Mg+WDO2JOFQa3O7mUqUtchqp2XAGXnAvuaEZ9gXDXHJnvzsblTKYwul3lgZsKeRYJ971HqY+YtAf6JjFrOfRSjIliuylN3LQlVSzcd63s9mQyQVkuEyQ61UU81U7Xl+SAm10LVTjcjGh/oTDMkrYvOcjVRxo3gMlMyoqPmzbuxLhVn4SS5A5fcrgBzhvODLhEuNM4A11l2bqBx7pWKtwKibRcZdp3H/iz3xLhPqs+CSWE207cBUm27+a6BMqD20nZuLHd3YNewi4H0kMlj/djcKfZcZNeQSbCnSZIiavvltIAA9a7uLWV0rj7nP7kMbgPY77w6LS63TXAWmKNsLbb7YhKRzZELlg6dVRZCDfyvLvbYyiEhkXfc+DwfgxuYVnofEvp9qJZpc6eU2xlyDsi/BALL1a5l+ZdCNwqqSGir3mkcnXjkt0G7afACV1hnEj86kNQJMP77+EWbDKX/kO2KCvIdwQIt+7mJT5YIs/vleLNWSwS7yJ6Om4BBc2VfeGS3er79o1aOr0l6soo+5sNnnVaEc169AnPxS0yTHS2Q6cqg6qfeCN+Ws9UtDHQITLmJi8WoSdrz8UtWlQwTd2XeGvA/G5hrYS75oge4hTmzeKmh4hi4f6t8aW3eUm0MmbkqUS9lihpTfhxh3WI9x/DLdyNNaXzFamHCyKmoOBWwhxBIe9Q+/5buMUrG3QXm4WFPbD2bo2IiyxOcUqm0CW5jsmiKjDumP1BM2jcQbCy1TOA+/GteNzicNJCuGq4wLiB3tYpUPpJjhG1EpqfIHDIxiUcJ/L+Q7jhvSZUyjCld4NIb23V+W6T2Pxu4Q6/X9bfwg1G3C5RehtP0beQ+tpnfDq90ELCvP8IbjDmsbmvu4StY+UkleDdpK/6jT9MhOyTLvPfNO4GfQLBPWIu9XC35R8Q4048bdBJCLJ0do302m1kcHc39aio5IZ2na+Ny82iL2YcvTP6BDKgNMmuJ0R174hDHxAKv70rQQWxOu3qOxOVKlWqVKlSpYLrP7ac0AxVxnV/AAAAAElFTkSuQmCC;" parent="1" vertex="1">
                    <mxGeometry x="360.0000000000001" y="30" width="106.09" height="40" as="geometry"/>
                </mxCell>
                <mxCell id="25" value="" style="shape=image;verticalLabelPosition=bottom;labelBackgroundColor=#ffffff;verticalAlign=top;aspect=fixed;imageAspect=0;image=data:image/png,iVBORw0KGgoAAAANSUhEUgAAAW4AAACKCAMAAAC93lCdAAAAkFBMVEX////MAADJAADrra3kk5PwwMDzz8/wycnrr6/55eXZYWHfeXnNAADYV1ffd3fhg4PWTEz+9/fQMTH339/77u7aZmbuurrRLS388fHmmpr119fghYXQJibXUVH++vrQISHopKTUQkLjj4/TPDzOEBDZY2PcbW3PGRnSODjRKSnnoKDmmZnODg7xxMTTQEDYW1szNfrvAAAL7klEQVR4nO2d6XqqMBCGZdzrggi1Hvetaq2t9393RxLCkgWSAEqR78/pc4AQXkMymZmEWq1SpUqVKlWqVKlSpdy1clo/zfrlu/PsiryGtuDp2RV5DdXBQIL2s2vyEnII7t6za/Ia2hqenl2R19Dm3m8b/eup30o4cWo9pD4llzWzViuZEydw61TEH6b7oAowmDy7Gq+ibzSogrGrmrhYdTP+uGXbP5d/d5nm3P3n0rZtPk+T2DBJnfzrqrkGMR17Ml/e6bEyjPG80e5Spw8JbjvnSv9VzX5dQmveoW79E4MVyT06mE9CDb1h4NNh+qj6/yk5Rw/PnD4ym3/EkY4w/+hNHO8yazJwL4Oq7+ZpRojCLPzf3d1JjnXAfLwjJUw3CzAq3FztCNVQdzLZq7EmxA2TDAGznpSV/oL68mANvO7AIt2vhgD65iz+dq8u1J3Ar0ep29Np2BHiHxcn/o6vLfMO2JsGOsOUsD3ig8pRK9bVxB3t1MwCNiZ+ulSdt0AemO/MYCPghklPgSoFap6yhI2Aw2c1teTL2WYNGxMfVHYKR41cYCPgywo4pdlHbrRd4LeqSwlrlydsBPy98lcR2bk2bQJ8XpmFSJsHwHZ5G/VnP2kBtHp7DG0X+Pnlx0w704lNIvDjaztlO9nA9oNpob/4JxqvnNLZS03bRTt4r3d+nLum06n7T7NTf78dBNBh+6oT+9U5raMV9vMfoau1XR8aPOTw/ciHLIzsfjrWBzPZx+o0ewcGOSxecNbTTtO04TAXWhn2zInMaewLE4iDf/k/X7FU16cNcItr167L/LQ/XtqBFeJszlHicH6tHlx/2g4w91FxJ4pDcl4kT6i7i8Y/obwmijWk/2euSxsMP0bT/Xc+8e52JKfSDbg5CjdxuJV0Vm99wG90enHUpA1XMhG3Ots7O25e2oCczHql7HDUGfqlnGRa6/uzncL22k2PNsCFFDnEPQM0OPdbE4ubN4OchuNzZRwxrQN+tKApDTRph2bgxIb84NywNak3zO0JQNBZXIJOHJZl61CsL/JoJMF9qUUbTuGRj/T9MVmujjjf+F9o1CyXCb4aB8Bwv6vXtqkFZ15eIYCeU3W187uUclkoXwHcNRq6PvVo/1DlnlzWv/prcKZDn3eZVg5efLp9RHuoQxvOjJFhgtFL1w/YI9IhjUrklf2J9LJa9jYwZvu9N8lg5c3k6tXmUKIppo2RoWm3VnYD7HKrm//rlyih0Brf5yMb96+JFu08l+zZe2/MLdOA+Ya7Ay0fIDNIZixvcMnxFXq80OSvqwE7d9r3auFkuVIZKHetDtq0u/k6N3DmBXzmepNHa6tDG3WpTp/r+ctO3TGKKm/zvctDpRMFxkv/pn3OGsCM5brfyzRc6mQ4wJt7pXUy6DWAOahlGGUyvnWMki906Rn9vci7htMy+QZ1gu44GvNZQkMtb+nEE3BXGrwWZWp9+Uorx/UNX0u2yyiXXzpPaXXcfmteoKZeyrBiPlprwA48JW4kIVe/Sclk6jTuUfj63M3uEknPMRU2gmEkLLwSpdVVh3ZkY6oWNQGZcPZJotS/XWTGVnvybfYYmZsmd+HU95DS0RtR7CN9RD6jYjXr7Ngq+DoqbqillcIdv9FOU6ZIgPEm3nacucmxIu3/sYnMS+YsLyrRYg7cJOm0jv2EhqM2arW0aPOydQJJ4TbQ3nbiQpxB/DIVgCMNfMCc4+Omj7xJwZklL5RWxK3TlRiihBxPsrhd4KLaSiTgAp13nzVumTC5Gm694GR841bA7aZecYuQC1HDMtKpZYvbkVpNqoS7q5dUkrDCVwW3AWfOOCCb7gyL8MWZ4u7KuZGUcDMVlLpDUhhLCbdhrBneCiHqcU64p5JOOxXcP3qNO8mEU8Rt7KnrHZXKhHJcssS9l72/Au6TwnMFSoxhqeKmX5c3pYtDmbvMMW3c/2QfQQH3Ra9xJ8awVHFT32uYqV0eTGmzw23J21bSuOXLjN4gMRtNGXc0FnRTrI/ft2WHW35lkjxuzSXByfkH6rjDlVZtBUEcKTvc8r2sNG49I1CmfHXc4VUOyisMfzPHrdCdSeM+JpfFLd+99jt2WqmBO2TtKA2USKQymeGWHijlcSsOSL5c584KFnFZCDq4A+8JN5nL9wjxjpG6ZIb7XaHikri1ZjieXXKfhkBTAfd1/BESdzfCM7l4yrnnoVfvYG0476Rv12SGe0SXo+oRZKbduo0bNSV33W9MpgODmwo/fPPuTewddkiJeqKmW+Y4yQrNDPdX9OTt3BSqxw3SjvqN6OtP/4CyQiYbmuBS/iEF3LzIv995M7jpyNyKuZS8aJnhjgZvIeEjH6y67qdqtpvAQazbuA13zuxF7kFU50TcnB/bfylZ3MynMugTCocbR38BbsKaSQp13V7jFK7pTcbNxkfx8okaDzcdRaCds4XDHbx/YCBftXbjRk3Nm/YJv+ySjLvGFkx+u2TcdOZA4XCH+krs8VCwdKJCidzenEsY05HAzfQmZcK9CK7tcx9JWi44knR1Ft1OAvcnQ6Y8uEM9JY57aW+gFrmcH/aqSeFmXq9C4Y4agqpJSyEXG6q7pivQ8O0HFG3xd9NgJIF7yZS88Y4UAXeClXy9zX/EXgwndDPUIrnTDCkR69g+xc0rtYZKsSH4eNyJQxuAMRTFtELRdmxM6G9Y54+O1hIYe1gBN2sZ+UGZIuCWcVGBaAPVRt+/GgVStdYGewpKnYvj8cm4Wa+fD7UIuOVynUC0dLx99PYqQlbgVqYsvsLcmsLuKxE3x2V4JceKgFs2vOAPOLSsydLdicv9Uy95HkvOJGJoLhNpB2ZOIXBL57mIeN9HzMsBPZP2nnXSJhGDczEP651TgcCPWQjc0rYbCPoTJPT6p2jckr50tvVGPMTckv1hpxC4FVYrJQTK0+zIHftbxuFO1Lt/cTFw10ay3UlCStlWEgC37Lxwh3JzWNx0+8nfI1jz1kJLVT3224T67hKD43rOCncou52t4Nt7VGPqeC64a47kF8fixzP9GaXhReFzwB3+GdXbQz64a5Zkf9KPK2SRfH3Mg+WDO2JOFQa3O7mUqUtchqp2XAGXnAvuaEZ9gXDXHJnvzsblTKYwul3lgZsKeRYJ971HqY+YtAf6JjFrOfRSjIliuylN3LQlVSzcd63s9mQyQVkuEyQ61UU81U7Xl+SAm10LVTjcjGh/oTDMkrYvOcjVRxo3gMlMyoqPmzbuxLhVn4SS5A5fcrgBzhvODLhEuNM4A11l2bqBx7pWKtwKibRcZdp3H/iz3xLhPqs+CSWE207cBUm27+a6BMqD20nZuLHd3YNewi4H0kMlj/djcKfZcZNeQSbCnSZIiavvltIAA9a7uLWV0rj7nP7kMbgPY77w6LS63TXAWmKNsLbb7YhKRzZELlg6dVRZCDfyvLvbYyiEhkXfc+DwfgxuYVnofEvp9qJZpc6eU2xlyDsi/BALL1a5l+ZdCNwqqSGir3mkcnXjkt0G7afACV1hnEj86kNQJMP77+EWbDKX/kO2KCvIdwQIt+7mJT5YIs/vleLNWSwS7yJ6Om4BBc2VfeGS3er79o1aOr0l6soo+5sNnnVaEc169AnPxS0yTHS2Q6cqg6qfeCN+Ws9UtDHQITLmJi8WoSdrz8UtWlQwTd2XeGvA/G5hrYS75oge4hTmzeKmh4hi4f6t8aW3eUm0MmbkqUS9lihpTfhxh3WI9x/DLdyNNaXzFamHCyKmoOBWwhxBIe9Q+/5buMUrG3QXm4WFPbD2bo2IiyxOcUqm0CW5jsmiKjDumP1BM2jcQbCy1TOA+/GteNzicNJCuGq4wLiB3tYpUPpJjhG1EpqfIHDIxiUcJ/L+Q7jhvSZUyjCld4NIb23V+W6T2Pxu4Q6/X9bfwg1G3C5RehtP0beQ+tpnfDq90ELCvP8IbjDmsbmvu4StY+UkleDdpK/6jT9MhOyTLvPfNO4GfQLBPWIu9XC35R8Q4048bdBJCLJ0do302m1kcHc39aio5IZ2na+Ny82iL2YcvTP6BDKgNMmuJ0R174hDHxAKv70rQQWxOu3qOxOVKlWqVKlSpYLrP7ac0AxVxnV/AAAAAElFTkSuQmCC;" parent="1" vertex="1">
                    <mxGeometry x="816.9600000000002" y="30.00000000000003" width="106.09" height="40" as="geometry"/>
                </mxCell>
                <mxCell id="128" value="" style="rounded=1;arcSize=10;dashed=1;strokeColor=#F59D56;fillColor=none;gradientColor=none;dashPattern=8 4;strokeWidth=2;" parent="1" vertex="1">
                    <mxGeometry x="350" y="-15" width="600" height="130" as="geometry"/>
                </mxCell>
                <mxCell id="129" value="ECS&#10;(Fargate)" style="shape=image;verticalLabelPosition=bottom;labelBackgroundColor=#ffffff;verticalAlign=top;aspect=fixed;imageAspect=0;image=data:image/jpeg,/9j/4AAQSkZJRgABAQAAAQABAAD/2wCEAAkGBxQQEhIPERARFRUVFxIVExYXFRUWFhIXFhUWFhUVGBYYHSggGBolGxUVITEhJSktLi4uFx8zODMsNygtLisBCgoKDQ0OGxAQGy4mICYrLS8tLjcxLS8rLS0tLSsuLS0rLS0vLS0wLS0tLS0tLS0tKzAuLS0tLS0tLS0tLS0tLf/AABEIAOEA4QMBIgACEQEDEQH/xAAbAAABBQEBAAAAAAAAAAAAAAAAAQIDBQYHBP/EAEUQAAECAgYFCQQIBAcBAQAAAAEAAgMRBAUGEiExE3GBkbEiMjRBUVJhcqFzgrLBByMzQmKSs9EUosLSFiRDU4Pw8cNU/8QAGwEAAgMBAQEAAAAAAAAAAAAAAAUBAwQCBgf/xAA3EQABAgMEBwcDBAMBAQAAAAABAAIDBBESITFRBUFxgZGhsSIyYcHR4fATFDMVIzRSQnKC0iT/2gAMAwEAAhEDEQA/ANDHjOvO5RzPWe1M0zu8d5TaRzna3cUxfP3vdaN5xXsWtFBcpdM7vHeUaZ3eO8qJC5tuzKmyMlLpnd47yjTO7x3lRIRbdmUWRkpdM7vHeUaZ3eO8qJCLbsyiyMlLpnd47yjTO7x3lRIRbdmUWRkpdM7vHeUaZ3eO8qJCLbsyiyMlLpnd47yjTO7x3lRIRbdmUWRkpdM7vHeUaZ3eO8qJCLbsyiyMlLpnd47yjTO7x3lRIRbdmUWRkpdM7vHeUaZ3eO8qJCLbsyiyMlLpnd47yjTO7x3lRIRbdmUWRkpdM7vHeUaZ3eO8qJCLbsyiyMlLpnd47yjTO7x3lRIRbdmUWRkpdM7vHeUaZ3edvKiQoL3ZlFkZK/0h7x3lCjQnt6WUCp6RzneZ3FRTT6QeU7zO4pk0leO0dqZtwCJomiaJrmilE0TRNE0UQiaJomiaKIRNE0TRNFEImiaJqSjwHRHXWNc49gE//EAEmgQTS8qOafDYXENaCScgBMnYFpausk4ydHfId1uJ2uyGya0UKDBorJgMht6yTidZOJKbS+h4zxaiGyOfDAb+CXRtJQmdmH2j4Ye+7iud0ijvhmT2OaeoEET3qGa6VBpEClNIBZEHW05jxkcRrVLWNkWmboDrp7rsRsdmPVdR9DxKW4DrQ5+h5LmFpJlbMUWTy9QsfNE16KdQYkA3YjC3sPUdRyK880ocxzTZcKFMg4OFQahE0TRNE1FFKJomiaJoohE0TRNE0UQiaJomiaKIRNBKJpJqCFKvkIQnyVqkj853mdxUSkjnlO8zuKjmkr+8dqZNwCEJJomuVKVCSaJoQlQkmiaEJy9FCoMSMbsNjndsshrOQWrqiyrA1r4pLiQDdGDRPqPWVc0ulwqIwF0mNya1rfQAJzB0Q6zbjusjnvOA5pZF0k2tiC20eXqeSo6usgBJ0Z8/wNy2uzOySvHxYNFZIlkNvUBm7Zm4rLVla175tgt0Y7xxefkPVZ6LFLyXOcXE5kmZO1XGelZUUlmVOfvidguyVYk5iYNY7qDIfKDaalamsrX5tgMl+N2exvVt3LNUmkviuvRHuce0nh2KCaSaUzE3GmD+4bstXD1qmMGXhQR2Bv18fSgUkOIWkOaSCMiDIjatDVlq3sk2ML7e3J4+R/7is3NJNcwJiLANYZp0O0YKYsCHFFHivVdMolYQaS0hrmunmxwE9rTmqusrJsfN0J1w904sPzHqsQ10jMEgjIjMK/q21UWHJsT6xvjg4e917U3bpKXmRYmmbx8qNxKXGRjQDal3bj8oeSrqfVcWAZRGEDqcMWn3l4l0er63g0kSa4TIxY4Y+OHWNS8NZ2VhRJuhnRu7Biw+71bFXF0RabblnBwy98ONNq6h6SsmxHbZPLh6XLCoUtKgGG90N3OaSDsUU0mIINCmgIN4QhJNE1CEqEk0TQhKgpJoJQVIV8hIhPUrVLSTyneZ3FRzT6RzneZ3EqNJn947UybgEs0TSIXKlLNE0iEISzQSkQVy7AqRiuqxIoZCMQiYYwuIGZutnL0XmoVbQKSLrXNJObHSn+U57FLWHRonsX/AVy8Fesn558s9tACCDUe/svOycmyOxxJoQcfZbus7Jwok3Q/q3dmbDszGzcsrWVTRqPz2G7324t39W1eurrUxoUg86RvY7nDU795rVVdaGBH5N6644XXyE/AHIrH9OQnO4bDuHLA7jVarc5Ld4W2/N43ghc5mia6DWVmIMaZA0bu1uR1ty3SWUrKzsaBMlt9veZjvGYWCZ0bMQLyKjMeYxHTxWuBPwY1wNDkfLV5+CqZomvVQatixjKHDJ7TkBrccFqqtse1snR33j3W4N2nM+irl5KPHvYLszcPmyqsjzUKD3zflr+baLJUWiviuuw2OcfAZaz1bVpqtsfk6O+X4GZ7XftvWhj0qBRW3SWQx1NGZ1NGJ1rNVnbBzptgNujvHF2zqG2aZ/ZycpfMOtOy9vMmiwfczUzdBbZGfv6Cq0rGQKIz7kNvac3bTi4qWrqcyO0xIc5TLZkSnLrkuYUmkOiOvPe5x7SZ/+Ld2I6N77vktUlpAx4302to0A7dW4bFnm5H6ML6jnEur6796yVoj/mY3nPAKtmrC0XSo3nPAKuXnZn8z/wDY9SncH8bdg6BLNE0iFSrEs0TSIQhLNKSmpCoKkLQISITxK1SUjnO1u4lMTqRzneZ3EqJKH947UybgE9CYhcqU9CYhCE9IVM6hxAzSGG8MwF4tIGOUic150PaQL0NIJuXU6w6LF9i/9Mrl66hWPRYvsX/plcsTvTffZsPUJVon8btqekTUJJRNVcVbaGNBkA683uvxGw5ha6prSQ6QQyTmRDPknEGQmZOHzkucq8sb0uHqifAUzkJ2OyI2HWoJAob8TS75TwWCclIT2OfShAJqPAa81tqzrKHRmBz5gEkNDRiTnqG1ZGs7XRYk2wgIbe3N525DZvVpb/7OF5z8Kw606UnI7IphNNBQYY8cVRo6VguhiI4VN+OHBPe8uJc4kk5kmZO1CYhI6Jsnrf2H6N77vkueroVh+je+75Jrof8Ak/8AJ6hLtKfx9481kLRdKjec8Aq9e+0fSo3nPALyQaK94c5jHODZXi0EynlOWpYY7SYzwP7O6lbIRAhtrkOgUaExCoVqehMQhCekKalKg4KVfoSITxK1SUk8t3mdxKjmnUk8t3mdxKZNKH947UybgEs0TSTW1slUADW0iM2bjixpyaOpxHaers4XS0q+YfYbvOXzLWqZiYZAZbdu8fmepVVT2WiRpPf9WzxHKdqb1aytbQqlgUYXg0TGb3kEjxmcBskvHX1pmUecNgD4nX3Wa5ZnwCxNPrOLSDOJELuwZAamjBNXPlJI0YLT88vTcNpS4MmpsVebLcs/XethaGu6M6FEg375cDK6JgOGLTeylMDJYOaWaSaVTk0+ZNpwAu+VTGVlmS4striuq1j0WL7F/wCmVyua6nWXRYvsH/plcsmmWmu+zYfJYdE/jdtSzRNJNE0kTVLNXVjelw9UT4CqSau7GdLh6onwFaJT88P/AGb1Cpmfwv8A9T0KvvpA+zhec/CsNNbj6Qfs4XnPBYea1aV/knYFn0b/ABxtPVLNE0k0TS1bkTXQ7DdG99/yXPJroVhei++75Jrof+R/yeoS7Sn8fePNY+0nSo/nPAK7sjW8CDDMOI4te50ySDdyAAmMtvaqS0nSo/nPAKtms4mHQJlz20rV3Uq8wWxoDWOwoOgXUKVVsClNvOax08nsIn+YZrK1tZGIyb4JMRvd++N2Dtm5UFDpsSC69Ce5p8MjrGR2rZVHaxsSUOOAxxwD8mu190+mpMBHlJw2YrbLtR9/JwosRgzUqKwjabl7enBYg4YHb4JJroFpqgbHaYkMSigTw/1AOo+PYVz5LJuUfLPsuwOBzW+WmWTDLTd4ySzQSkmkJWU4LSFoUiEJ2lao6Tz3eZ3EqJPpPPd5ncSo0od3jtTJuAXpoEMPiQ2HJz2NOouAK6VaKkug0aK+HgQAAR92ZDZ7JrljXEEEYEYg9hGS6lV1Mh0yBOQIcLr290yxH7HUnGiiCyJDBo4i48RyJ5pVpMUdDeRVoN/LqByXLpoVxX1n4lGJIBdC6nDq8Hdh8clTTSmJCfCdYeKFNGRGxG2mmoKVIhCrIXYXV3DTUYhhH1kEhvvMkOK5ZEYWktcCCDIg5g9hWosnaNsNogRjJs+Q7qbPqPhPr6lpKxqaBSgHOGJGD2GRl1Y5O2zXoI8IT8Nr4ZFoYj5yNKFI4UUyL3MiDsnA/OmIXMELU0yxMVuMKIx47Hck/MH0VTSLO0lmdHcfLJ3wkpQ+TmGYsPXmKhNGTUB/dcOh4G9VivLGdLh6onwFU8WjPZzmPbraRxCt7FdMh6onwFEtdMMB/s3qFMxfBeR/U9Cr/wCkH7OF5z8Kwq3P0hfZwfOfhWGYCcACdWK0aUI+5OwLPo0f/ONp6oQvdRqkpETmQH6y26N7pBXFDsXGdjEcyGOznO9MPVZocpHid1h4UHE0C0PmYMPvOHU8Besyul2ToboNGa14ILi50jmAcgfGQG9FVWeg0aTw0uePvvkSNQyHFVtprTtY10KA4OeZhzhkztAPW7gm8tLCSBjRjfSgA+XnpmlUxMGcIgwRdiSflw5nJZWvowfSIzm5F7peMjKfovAkQkb3Fzi46yTxKdNbZaG5JUJqs6nqaLSXSY2TfvPPNb+58AhjHPNloqUOe1gtONAttYylui0YX5m64sBPWAARunLYsXaSGG0qM1uV6f5gHH1JXQGNhUKBKcmMGZzcTxJK5lTaSYsR8V2b3Fx8JnLZknGkuxLw4TjVwx4EdeiU6P7ceJFaKNPrX3UKCkQUkOCcLRITUJ1RK1RUnnv8zuJUSkpPPfrdxKjmlLu8dqZNwCF7qprSJRn6Rhzwc081w7D+68M0TQ1zmkOaaEIc0OFlwqF06qa/g0oXZhrznDdKZ1dTh/2S81Z2RgxZuZOE78OLTraflJc6mrurrU0iBIXtI3uvxlqdnxTdmkYcVtiZbXx9sRtBSt2j4kJ1qXdTw99ew80+n2TpMLENERvawzP5TjumqWLDcw3XNc09jgQdxW6oVtoLsIjHwz2jlt9MfRXEOn0akCQiQYn4XSn+V2KPsJaNfBibjfyuKj72Zhfmh7x8IXKV7qBW8aj/AGcRzR3cwfdOC6BSbMUZ+Ohl5S5voDL0VdGsPCPMixW67rvkFX+lzUN1WEbQSD83rsaSlogo4HeKjzXioluXDCLBafFpLfQz4q1g2zozszEbrb/aSqeNYWJ92Ow+ZpHAlQvsPHGT4J95w/pV7YmkmYtrtoehCqMPR0S8GnEdQVrYFoaM/KkQ/em34pKeBFgON5joBd2tLCd4WDdY+lD7rDqe35qI2Tpf+z/PD/uVn304LnQSdgd6FV/ZSh7sWm8eoXRqQITpaTRmWIvXTLevM6taPDw0sEeAc3gFgjZOln/R/nh/3KRtkKUfuNGt7fkp++mjhAI4/wDkKBIyw70YHh6lauPa6itye5/lYeLpBVNMtz1QoG15/pb+68LLE0g5vhD3if6VPDsNEPOjwxqDncZKt0XST8G02U8yVY2Fo5l5dXf6AKlrGvY8fB8Q3e63kt2gZ7ZqtW7g2Ghjnxoh1BreM1Y0eylFZjoi4/ic4+k5eiznRk3FNp5FfEk9AVf+oysMWWDgKei5qxpJkASewYncrig2YpMWU4ZYO8/k/wAvO9FvTGo1HEr0CF4C607hiVU022kBmDA+Ifyt3nH0Vn6fLwvzxN2HqTuoq/vo8X8MPfj6Dmkq2x0JknRXGKezms3DE79is6xraBRGhriAQOTDYBe/KMh4nBYysbXUiLMNIhN/DzvzH5SWfc4kkkkk5k4k7UOn4MFtmWZv+XnfRDZCNGIdMO3D5QblaV5XcSlOm7ksHNaMh4ntPiqtE0TSmI90Rxc41JTRjGsaGtFAEIKJoJVZwXYWiQkQnaVKhpPPf5ncSolJSOe/zO4lRpS7vHambcAhCEKFKEIQhCEIU1For4rrkNjnnsaCd/ZtRZrdiitL1JRqyiw+ZGiN1OMt2SsIVq6Uz/VvDsLWn1lP1VnVdiXOk6kPujutkXbXZD1WpoVUQKOOTDYJ4FzsXGeErzuCay0lNkd4sG014C7ilczOyte6HnYOp91kmW5jDnQ4R2OHzXqh2971H3P/AHaratLJwI03MGif2t5p1sy3SWOrWzUejzN2+zvsxG0Zjh4ruMdIQP8AKozAB41BPl4rmD9hH/xAOV44X0PXwWg/x63/APO784/ZSC3cPrgxNhBWCmlWYaSmcxwHktJ0dLf15n1W+NuoX+1F3t/dRut2zqgP2uaFhUI/U5nMcFH6bLZcytpEt53aPvf+zV5olu4p5sKENd4/MLKTVxVlmqRSJG5cafvv5I2DM7pIbNzkU2WEk+AHp1UulJSGLTmgDxJ8z0Use11KdlEDfKxvEglVtIraNF58eI7wmZbhgt3Vlj4EKTnziu/Fg0amjPbNWVNqmBHbdfDYZYAtwLfAFuI1LV9hNxG1e+/KpPHVwWT7+Vhuoxl2dAPc71yhItbW9inNm6juvjuOkHbDkfRZakUd8NxZEY5rh1OBBSuLLxIJo9tOnHBM4UxDjCrDXrwxUaEIVStQhCEIQgoSFQcFIWiQhCcpWqCkc9+t3EqNPpPPfrdxKiSp3eO1Mm4BOQmoXKlOQmoQhOXUbIQWsokItABcC5x7TM4lcsXWLKdEgeX+oprokfvHZ5hK9LfhG3yKsKS1xaQxwa6WDi28BsmJrnte1LTS+cS/GE8HNMwJ/g+7ukoaLaiPAe4XtIwOdyX4yxOTsxw8FuagrcUuEYoYWScWEEg4gNdgescoLUXwJ7sVIOWziDvv2LKGR5HtgAjP5QjmFV2Yq+mQpaWKBD/23fWO2EHk7zqWqWPtFa50CI+BDhi82QL3ZYgHBozz6ym2HrKLSIkd0V7nSDJA4AYuyaMArYMxBhvEBhJN42U27NQoqo8vGiMMw8ACgNM60y26zVU9u6O2HSWljQL0NrnSwBdeeCdzQs4tR9IvSGeyb8cRZVJZ0ATD9vkE7k6mAzYnIXuFTUi5pf4eJd7bpy7ZZy8ZKvWdzHN7wor2uDsDVaOwkBr6SLzQbrHOE+oggA+pXTFzj6Peku9m7i1XFuqfEgGjuhRHMP1k5ZHm5g4HanklFEGUMQitD5gJJOwjGmwwHEdAT5L1WkoNMiT0EYXe4OQ4+917wsvU1UU0RJw2xIZBk5zjdbtB5+4q5qC2DosRkCLDBLiGh7cMfFp+W5aOuqzbRYRjOaXYgACWJOWJyCkwpeY/fD3UGN5u8xuOxciLMS4+gWNqcLhf5HfvXooTHtYBFe17utzW3Qdkyq61VHbEo0UuaCWtLmnraRiCCsZWFraRHIa12iaSMGZnHrfnukt1aLotI9m/gr2TEOOx7W1oBr11rnfq1qh0tEgRIbnUqTq1Xjdr1LkiVNQvMr0ychNQhQnJCkSlBwUhaNCEJwlaz9I579buJUafSue/W7iVElbsTtTJuATkJqFypTkJqEITl1iyfRIHl/qK5KtjZi1zIMNkCKxwa2Ya9uMgTPlNz68xPUmGjozIUUl5pUeYS/SUF8WEAwVoVl6fDLYj2uaWm87Agg5nqK3v0ddGf7Z36cNW74dHpjJkQ4re3rbtGLTuTqmqllFa+HDLi1zy/lGcpta2U+zkrdLSRgxbYILSD5fKrDMzzYsEsLSHXcvmC51bHpkfWz4Gq7+jZhvR3SMiGAGRkSL0wCtE6zcB8Z1IiNL3OIMnHktk0N5ozy65qakVtAgOZBL2hxLWNY3EguIAwHNGPWohyZhxzHiOAFSRvrS/fheiLOCJAECG0k0Fd1Cengqu0FmzTI7XmIGMDGtOE3EhzyZDIYOGK99XVDR6KLzWCYze8gkeMzg3ZJWVJjthtvvcGtEgSTICZAGOsheGtqph0tgD3P8AwlrzLXd5p2hbDAY1xiNaC7x+GnBYxMPc1rHuIZhcPcV4qL/E9G0mi04n3sbk+y/KXyS1jUNHpQvFoDjlEYQCfGYwdtms1/gF1+Wnbo+26b+q7ltmtTVNUw6IwtY55HWXPJGu7zW7AqoRjxatjsFPmq/jcrYwgQaOgRDX5ru4XqpqCzT6JSDEvtfDLHNBycCS0iY2dS8f0kQyRAIaZDSTMjITuymepbGBGa8BzHBzTORBmDIyOI8QVW0KvoEdzoQeA8FzSx+BMiQZTwdl1IiS8IQvog0DsNfjciHMRjG+s4WrOPMLnVmul0f2jVuLf9EPnZxK9T7NQNKyOxuje1wdycGul1FuQ2SXrrirG0qHonucG3muN2UzLqxyVUGTiQ4ESHdU1pworYs5DiR4cQVoMeJK5HBaS5oAJJIkBiTj2LrNo+i0j2b+CbRKDR6Gy81sOGBm9xxOtzsdizdp7Wwnwn0eCC6+LpeRJoBzkDiTsXEKE2ThuMRwq4YbjhnjkrIkZ05FZ9Npo048MeGaxKE1CRp4nITUIQnJCkQVBwUhaVCRCcUStZ+lc9/mdxKjTqVz363cSo0rdidqZNwCchNQoUpyE1CEJyE1CEKejUl8J1+G9zHdrSQfTMLUVfbuKwXY0NsTscDcO3CR2SWQQrYUeJC7hp04YclVFgQ4vfFfmePNX1a2spEeYvaNh+63De7M+gVfUh/zMD2sL9Rq8K9lSH/MwPawfjap+o+JEaXGpqECGyGwhgoKLpVt+hRv+L9Vi5zVldR6N9nEcB3Ti0+6cN2K6baahOpFGiQYcrzrkpmQwe1xx1BcrrCrotHN2LDc09UxgdThgdi3aUtsiiI2o7OO86/VL9FGG+EYbqHtYbhq9F1z+JP8PpsL2iv+E7l7dNcrrKu49J+0iuI7o5LR7oz2rqB6H/wf/NcmoFXxY5uwobnnwGA1k4Dau9JuebDBW+t2eGpcaMawB7yBcccsdepdPsV0KBqf+o5cyrP7WL7SJ8ZXVLOUJ0CjQoL5Xmh05GYxeXZ7Vymsz9bF9pE+MrmebSXhNOoeQXUg4GYiuGfmVZVVaikUeQv32D7j+UNhzG+St6bb2I5soUJsMyxcTfI1CQG9Y5CxNmo7W2Q40+azfzW50pAc60WivzHUeC9NMpsSM6/FiOefxGctQyGxQJqFnJqalaAKCgTkJqEITkJqEITkhSJCoOCkLToTZpU3StZ2lc9+t3EqNPpPPfrdxKjmljhedqZNwCVCSaJrmilKhJNE0UQlQkmiaKISoSTRNFEJUrXEEEGRGIPYe1NmiamiFsKot1EZJtIZpB3mya/dk70WuoVaUemNLWuY+fOhvAnta7PWuQzQ10iCDIjIjMLfB0hFZc7tDxx4+oKXxtGwX3t7J8MOHpRdv0LbujkLsrsuqUpS3LwU2saPQ2hriyGBkxox2MbxXNRaelXdH/EPl24X/wA8r3qqpziSSSSTmTiTrK0xNJin7bb/AB9vZZoeijX9x13hr4+hWxra3bnzbR2XB33SL9jch6rHEzxKSaJpZFjRIpq81TSDAhwRRgolQkmiaporUqEk0TRRCVCSaJoohKhJNE0UQlSFE0hQRcpWmQkQmyVrPUnnv1u4lRJ9JPLfrdxKjmljiKnamTcAlQkmiaioXVEqEk0TRUIolQkmiaKhFEqEk0TRUIolQkmiaKhFEqEk0TRUIolQkmiaKhFEqEk0TRUIolQkmiaKhFEqEk0TRUIolQkmiaKhFEqEk0TRUIolSImkJUEiiAFp0JJoTVK0+PznazxTEIXS5GCEIQpUoQhCEIQhCEIQhCEIQhCEIQhCEIQhCEIQhCEIQhCEIQhCEIQhCEIQhCEIQhC5KlXaEIWlY1//2Q==;fontColor=#66B2FF;" parent="1" vertex="1">
                    <mxGeometry x="619.5" y="-15" width="50" height="50" as="geometry"/>
                </mxCell>
                <mxCell id="131" style="edgeStyle=orthogonalEdgeStyle;rounded=0;jumpStyle=arc;html=1;entryX=0.25;entryY=0.5;entryDx=0;entryDy=0;entryPerimeter=0;fontColor=#66B2FF;strokeColor=#66B2FF;" parent="1" target="128" edge="1">
                    <mxGeometry relative="1" as="geometry">
                        <mxPoint x="610" y="-410" as="sourcePoint"/>
                        <mxPoint x="510" y="-159.94000000000005" as="targetPoint"/>
                        <Array as="points">
                            <mxPoint x="550" y="-410"/>
                            <mxPoint x="550" y="50"/>
                        </Array>
                    </mxGeometry>
                </mxCell>
                <mxCell id="132" style="edgeStyle=orthogonalEdgeStyle;rounded=0;jumpStyle=arc;html=1;entryX=0.717;entryY=0.577;entryDx=0;entryDy=0;entryPerimeter=0;fontColor=#66B2FF;strokeColor=#66B2FF;exitX=1;exitY=0.5;exitDx=0;exitDy=0;" parent="1" target="128" edge="1">
                    <mxGeometry relative="1" as="geometry">
                        <mxPoint x="657.5" y="-412.5" as="sourcePoint"/>
                        <mxPoint x="510" y="60" as="targetPoint"/>
                        <Array as="points">
                            <mxPoint x="720" y="-412"/>
                            <mxPoint x="720" y="60"/>
                        </Array>
                    </mxGeometry>
                </mxCell>
                <mxCell id="133" style="edgeStyle=orthogonalEdgeStyle;rounded=0;jumpStyle=arc;html=1;fontColor=#66B2FF;strokeColor=#66B2FF;" parent="1" edge="1">
                    <mxGeometry relative="1" as="geometry">
                        <mxPoint x="660" y="-402" as="sourcePoint"/>
                        <mxPoint x="780" y="-170" as="targetPoint"/>
                        <Array as="points">
                            <mxPoint x="660" y="-410"/>
                            <mxPoint x="720" y="-410"/>
                            <mxPoint x="720" y="-170"/>
                        </Array>
                    </mxGeometry>
                </mxCell>
                <mxCell id="140" value="" style="endArrow=classic;startArrow=classic;html=1;entryX=0.5;entryY=1;entryDx=0;entryDy=0;fontColor=#66B2FF;strokeColor=#66B2FF;labelBackgroundColor=#FFFFFF;exitX=0.5;exitY=0;exitDx=0;exitDy=0;edgeStyle=orthogonalEdgeStyle;" parent="1" source="47" target="48" edge="1">
                    <mxGeometry width="50" height="50" relative="1" as="geometry">
                        <mxPoint x="983.6802200000002" y="185.80999999999995" as="sourcePoint"/>
                        <mxPoint x="1070" y="152.5" as="targetPoint"/>
                        <Array as="points">
                            <mxPoint x="645" y="150"/>
                            <mxPoint x="413" y="150"/>
                        </Array>
                    </mxGeometry>
                </mxCell>
                <mxCell id="142" value="ALB" style="shape=image;verticalLabelPosition=bottom;labelBackgroundColor=#ffffff;verticalAlign=top;aspect=fixed;imageAspect=0;image=https://encrypted-tbn0.gstatic.com/images?q=tbn:ANd9GcRgsl5MdUH_3DDrGn9s9tLr4lBDoQGaYD5q9Q&amp;usqp=CAU;fontColor=#66B2FF;" parent="1" vertex="1">
                    <mxGeometry x="610" y="-430" width="50" height="50" as="geometry"/>
                </mxCell>
                <mxCell id="145" value="" style="endArrow=classic;startArrow=classic;html=1;fontColor=#66B2FF;strokeColor=#66B2FF;entryX=0.5;entryY=1;entryDx=0;entryDy=0;exitX=0.5;exitY=0;exitDx=0;exitDy=0;edgeStyle=orthogonalEdgeStyle;" parent="1" source="47" target="73" edge="1">
                    <mxGeometry width="50" height="50" relative="1" as="geometry">
                        <mxPoint x="640" y="260" as="sourcePoint"/>
                        <mxPoint x="690" y="210" as="targetPoint"/>
                    </mxGeometry>
                </mxCell>
                <mxCell id="146" value="CloudWatch" style="shape=image;verticalLabelPosition=bottom;labelBackgroundColor=#ffffff;verticalAlign=top;aspect=fixed;imageAspect=0;image=data:image/jpeg,/9j/4AAQSkZJRgABAQAAAQABAAD/2wCEAAoHCBEPEg8PDxEVDxAPEg8SEg8SEBEPEhIVGRQZGhgUFhkcIS4lHB4rIRgWJzomKy8xNTU1HCQ7QDs0Py40NTEBDAwMEA8QHhISHjQrJSw0NDQ0NDQ0NDQ0NDQ0NDQ0NDQ0NDQ0NDQ0NDQ0NDQ0NDQ0NDQ0NDQ0NDQ0NDQ0NDQ0NP/AABEIAOEA4QMBIgACEQEDEQH/xAAbAAADAAMBAQAAAAAAAAAAAAAAAQIFBgcEA//EAEEQAAICAQEFBQQHBgUDBQAAAAABAgMRBAUGEiExE0FRYZEHcYGhIiNCUmKxwRQycrLS8BZUoqPRgpLCFTNDY3P/xAAaAQEBAAMBAQAAAAAAAAAAAAAAAQMEBQIG/8QAMhEBAAIBAgMFBQgDAQAAAAAAAAECAwQRITFBBRJRcfATYYGx0SIjMpGhweHxFELSFf/aAAwDAQACEQMRAD8AxgCGen2xjySMCgJRQDGSMBjTEADAEwAoCSgKTAkrIDGIAGNMQAUBKZQUAAAUCACBjJyMBgAAYsaJQyooCSgGCEMCgFkYDGSMBjEADAEwAoZBQFICSkwGMkYDGmIAKASGFBRIE2FAmSUAwEAGLGiRnpFDJyMgoBIYDBCACxCRQAM9mh2VqNTzoqlNfeUWo+r5fMzNG5Gsmsy7KHlOyS/liww31GGk7WtEfH+5a0NM2W7cfWRWU6pvwjZN/wA0UYnW7G1OnWbqZRj9/HFH1XQJTU4bztW0T8f6eEAyAZ1ASUBWRkjQDGSMBgmAAUAkxhQUSBJFAAAYoBDPTyY0SMKoBIZBQhFwi5NRim+JpJLm230SA+mn087Zxrri7JyeFGPVv++86HsPc6qhKzVYus68Lx2cfh9p+fyPVu1sSvQVdrdwq6UXKycsJVx68Cfcl3+L+BqW8u9M9W3XU3Xp1ywm1Kzzl+H8PqHHyZsurvOPBO1es+PrpHPybbtDe7SabMIN3OPLhqS4I47uLp6Z6GDu3+teeCiCXdxSlP5LBpQxs2MfZmCkcY70++W507/XLHHRW1+Fzh+eTObP3y0tzULOKiUuX1nODfhxLkvjg5iA2XJ2Zp7xwjbyn6un7X3W0+qXaU4pm+alDHZz/iS/NfM55r9Bbppuq2PA1071Jfei+9MyGwd47dHJRy7KW/pVOT5fihno/LozfNfo6NqadSi08rirtwnKEvD9Gg1Yy5tDaKZZ71J5T4evD8nKxH31mlnRZKqxcM4Pha6fFeT6/E+IdivGN4MCSguykwILyAxiABjQgAoCUygpgIAMWBKGV5UAhgMeSRhVG2bgbLVt0tRNZjp+Fxz0c3+6/gln4o1E6vuVp1Toa5vk58dsvd0XySJLQ7SyzjwTEc54fX9GE9oG2XmOjrbSWJXNd+VmMH+foaMejaGqd91tz62SlP4N8vlg+AZ9LhjDiikfHzA0IYbCgFkYDNl3M2y9PcqZP6m6WJeELHyUvjyT96ZrI0GLNirmpOO3V0ne/d6erdVlCXap8E8vhTg3yk/d+rPhodxalFO+yU5d6hiMfyyffZW9enWlhO6xdtXBRnX9ucorGYrvz1+JqG1t5dTqZS+slVDL4a624JL8TXNv+8E2cXT49ZavsYnuxXr9PW3vbbqNx9M0+znOuXc+JTXxTRqG2dhXaOS7RKcJNqFkc8L8n91ny0G3NTp5Jwum/wAE5SnB+TTf5HRNnayrammlxR/eXDZX9yTXc/mmVltfVaPack96m+3l9HKyj07U0UtNdZRLrCWE/vRfOMvisHlDsVmLVi0cpUgJKTD0YyRgMaYgAoCRhd2JGiRleVDJyUAwEZTYOxbdbZ2df0Yx5zsafDFfq/IPN71pWbWnaIY+uLk4qKee5JOTfuS5s61WpQ2UlhxnHZ/OLTUlLsMtNdzyGm0Gh2VX2kuGHjdPnZJ+C7/gjXdt78Rsrtp09UvrIyh2lnDFYkscSjzfe+voeZcXNlvrbVjFSe7E8/XDk0fv9Rk/8jK7vVQCQwGCEAFgShgMYo5fRN+5ZDr5hdvcZtW4GqcNRKvP0bq3lZ74818mzVT17M109LbC6GHKDzwvpJYw0/UMGpx+0xWpHWG3b9bLsssrvqqnNdm4zcIuTWHyylz72aU008NPl1TTTRvui37qk0r6p1/ihicfiuT9EzK6nZ+i2lDtI8M30V0HicX4P/hk3crDq8ulrXHnpO0cN/XBy0DKbc2Lbo5pT+lCbfBauSkvB+EvIxZXZpeuSsWrO8SrIyRoPRjJGAwEAGKAQyoY0SMD61Qc5RhFZlKUYxXjKTSS9Wjrukoq2To8z6Vx47Hy4rLH3efPCXwOeblaZW66jPNQzZjzj0fweH8DZfaZqmo6ehPCk5WyXjhcK/NkcnXb5s9NPvw5z68mm7X2pbq7Hbc/KMFnhhHwieEQyurWsVjaOEQY0SMPSgEhkFCA23crd5aiT1F8fqYP6EWuVk13v8K+eQw581cOOb2fHYG6VuqSttbppfR4+skvwp9F5s3SnY2g0MeKUa4462XuMpP4y/Q8G9G9MdJmihKd6/eefo1LHeu+WGuXnk55qdVbfPjtlO2cn1lmb90V3e5EcyuLUa2O/kt3a9IdSe9Wgh9H9oWO7hhbKPrGOC46/Z+t+jx03Nr92aSl6SSZzKGxtXJcS017Xj2FvNeXLLPJZCUHwzUoyX2ZxcWvPDGyx2Xgn8GSd/OJ+WzoG19yqrE56WXZz+43xVt+T6xfy8jRdZo7KJyrtg65x6xePVPvXmjNbB3pu0rjC1u6jPOMm5TgvGLfh4fkbltjZtO09OrK3Fz4XKm1c+eP3X5PvRUrqM+kvFM896s8p6uWHu2XtKzS2K2qWGusXnhmvCSPJfVKEpQkuGUG4yi+5ruIDsWit42njE/rDrMJVbU0ngrI4a5cVdi/VM5fqtPKmydUuU4ScX70za/Z1q2p30N8pRViXhJPD9U4+h4t/dMoarjSx2tcJPuzJfRb9EiOTo99Pqr6fpPGPXlwa4BJRXXUmBJWQGAgAxKYxAiooBDA2n2eyxrY5767V8l/wZL2np9rpn3OqxZ/60avu9rf2fV6e1/uxsgp/wAMnwyfwUm/gdB9oGz3fpY3Vrilp5cbS5/VtYbXu+i/dknVys8+z12O88pjb5w5eBK5DK6qgEMBjySMK+2nplZONcOcpyjCPvbwjrOuvhs3RPgSzVXGFaf2pvknL482c63OqU9fpYvpxSl8YwnJfOKNp9pdzVelr+9Oyb/6VFL+f5EcjXR7XU48PTnPv5/tDR642am1JZtstn1fWUm88/D9MM6Xs3ZWl2XU7bnDjS+ldLm8v7MF3LPcjVvZ5p1PVylLn2VUpR97lGKfo5Fe0HWSlqFRn6uquDS8ZSy2/Th+YetV3s+ojTRO1dt529cujOvfzS8WFXc4p44uGvPvUeLp78PyMRvft7T6muqFMVOUmpyslFKUEvsrvT/ReZpowzY+zsGO8XrvvHvWbhuBtWUbJaWTzC3MoZ+zJZcl8V+RpuT27Hudeo09i+xbU37uNZXpkNjVYoy4bVlsftA2eoXQ1EVhXLE/4o9/pj/tNSOl+0CtPScT613VyXxUo/8AkczX5hr9mZJvpo36Tt9G0ez9P9reOiqsz6o9ftGa7bT/AP5S/mPX7PdnOMbdTJY48V1+5PMn649DA7561Xauai8xqUak/FpZk/V4+BGCs9/tGZj/AFj9tvmwQAmBXWUMgoB5AQAYoYgRUPIxAmBZ1HcnbsdVStLc1K6qPDiTT7SHTo+uE0mcsPtptROqcbK5OucHmMo9U/77iNbV6aNRj7vXpLY96t1p6OUrKYuzTt8uFOTq/DLy8H8DWcnTNhb7U3pV6vFNuMOTX1Uv6X5P1MnLdrZupbs7CEuLnxVWThF57/q5JDfxaNNffT/d6ms+cdfk5AUdd/wXs3/L/wC/qP6w/wAF7O/y/wDvaj+sbsn/AK+n8LflH/TkYHXP8GbO/wAt/v6j+sxu391tFRpdRbVTw2VwlKEu1ulhrvxKTT+I3WvauC1orETxnwjr8WnbpWqGu0kn07Rx/wC+Dgv5jbPaVQ5Vaa1LlCc4PyUo5z/oOe1WOuSlHlKMlJPzTyjrlsYbV0HL6LurTX/12JdH7pcg8a77rU48/TlPrylom42vjRq48bwroyqbfJJtxcc/GKXxM37QdkSbjrIdIxjXYumOb4Zf6seho19U6ZzrsXBOEnGS71JMye0tv36qqqi2WY19WuTsfdKfmkGxfT2nUUz45jpE+X8wxQyRhvGe/YlLt1Omgllytq9FNOT9EzHm7+z7ZTc5aya+jFONWe+T5Sl8OnxYa+rzRiw2vPlDL+0G5R0ii/8A5LoJfBSk38l6mq7tbuS1j7Sf0NPGTUnlOU2usEu73szXtGqtfYzUc0QUk5LunJ/a8Fhdf7et7E2/boY2xrxJWYeJdIyXLix7v0EOfpaZf8L7mY70zPw6N73h2tXs/TqqrhVnBwVVr7CSxxNeC+ZzCcm23Jttttt8233tl6rVTuk7LZOycnlyf6LuR8g3dHpY09Nt95nnKhpiANswAAAAADFAGQKihkFANDEGQKDhT6rPvwxDC7jgj4L0Gox8BDG5vJ8K8BqKXTl6CQwbyo2bc7eFaObquf1FrjmXXs5dOL3PPP3GsDIxZsVctJpbk6pvLu3Xr0rqZRhfhYs6wsjjkpY+GH5HONfs2/TS4L65VvubTcX/AAyXJ+pkdgb0X6LEf/ep5/Vzk1w/wvnw/kbxpN7NBqY8Nso1t8nXeoper5YDl1tqdH9mY79PXr5OWcxxi20knl9Ellv3I6x/6bsqz6ajpWvGDqUf9LwC1my9Hnhlpq5d6r7Nzfv4csnee57U4cMdt/f/AA1Pd7c625xs1KdNKeeFtKya8MfZXv5m0bwbaq2dSqqeHteHhrrS5QSWOOS8F4d/qfDTb66Wy6NOJQhLkrptRXFnkmu5ebPlvfuz+0p6mhZuSzKtc+0SXd+LHqGna98uev8Al/ZjpHT17+b07u7dr2hW6LlHtlFqdePo2R6cUc93iu41PejduWkl2lWZ6eT5Pq4NvlCXl4P+3gKbrKZqUZShOEsprMZJr++h0zd7btW0anTfGPa8LU63jhtjjnKKfd4ruDay4r6HJ7XFxpPOPD+PCfg5ghmw707uS0c3bXmdE3yeMut/dl5eD/XrrxXUxZaZaxek8PXMxkjDIYxAAwFkAMSikSBUUUSmAFIZBQDTGIEBQCGAx5JGBYEoYDKJGA+fiPPmSMLvKjdtz96eDh0uqlmGYxqtl9nwjN+HTDNIQdSMGowUz07l/wCnSd7d11qFLU6aP13WcF0sWOq/F095z6i+dM4zhJ1zreU1yaa/v5m37ob08HDpdVL6HSq58+H8E/LwZlN6t1f2nN+m4Vc/34NqMbPPPdLz7w52HPbS29hqPw9J6beHl8vl6t3tt1bSqlTdFdqoYtg19CcXy4o+X5GibzbL/Y9ROuPOEkp15eXwvufuaa9xtm5u7l+mslfqEoPgcIQUlJ83zcscu5d5hN/9XGzVRrg89jBRk/xZcmvR/MPOkmtdZamGd6THHbk1oCclB2jGSMBgIAMSMQFQyskggKAEAFDECAeRiBMCgEMBjRIwKGTkoBgIYDBCGA+ps+xt8b9NCNcorUQjyjxycZpdy4sPK96NYyMjHlw48sd28bw2/aG/l1kXGqpadtNcfG7JL3ckkanObk3KTblJtuTeW33tslDCYdPiwxMY67fmYIQwzKAlFAMBABisgIaKgGIAGUmSAFAGQAoZBQDQxBkCgEMBjRIwKGShgUAhgMaJGFUAkMgoBDAY8kjAAHkQGKGSMqKQElAAxAA0UiQAoolMAKQyCgGmMQICgEMBjySMCwJQwKAQwGPJIwqholDIKAkoBgIAMUUAFQDAAEMAABgADGAANDAAGAAA0AAAxgADGgABgAANAAAUAARTGAAAAAH/2Q==;fontColor=#66B2FF;" vertex="1" parent="1">
                    <mxGeometry x="198.48" y="-260" width="40" height="40" as="geometry"/>
                </mxCell>
            </root>
        </mxGraphModel>
    </diagram>
</mxfile>